<svg width="150" height="150" viewBox="0 0 150 150" fill="none" xmlns="http://www.w3.org/2000/svg">
<path d="M144.694 53.7809C140.041 36.9879 129.48 22.4398 114.955 12.8125C100.43 3.18522 82.9174 -0.873831 65.6382 1.38195C48.3589 3.63772 32.4752 12.0566 20.9086 25.0902C9.34189 38.1237 2.87015 54.8953 2.68371 72.3201C2.49726 89.745 8.60864 106.651 19.8938 119.929C31.1789 133.207 46.8788 141.964 64.1058 144.589C81.3328 147.214 98.9284 143.531 113.656 134.216C128.384 124.902 139.253 110.583 144.265 93.8938L75.0001 73.0939L144.694 53.7809Z" fill="#9CA9AF" fill-opacity="0.1"/>
<path d="M24.5186 50.4814C18.632 62.6012 17.3024 76.4344 20.7725 89.4536C24.2426 102.473 32.2809 113.809 43.4187 121.391C54.5566 128.974 68.0507 132.296 81.4355 130.75C94.8204 129.205 107.203 122.896 116.32 112.976C125.438 103.056 130.682 90.1861 131.094 76.7187C131.507 63.2512 127.061 50.0848 118.568 39.6249C110.074 29.1649 98.1017 22.1097 84.8365 19.7481C71.5713 17.3865 57.8992 19.8762 46.3181 26.7623L53.7713 39.2973C62.343 34.2006 72.4623 32.3579 82.2804 34.1058C92.0985 35.8537 100.96 41.0756 107.246 48.8174C113.532 56.5593 116.823 66.3042 116.518 76.272C116.212 86.2399 112.331 95.7651 105.583 103.108C98.8345 110.45 89.6699 115.12 79.7632 116.263C69.8565 117.407 59.869 114.948 51.6254 109.336C43.3818 103.724 37.4324 95.3338 34.864 85.6977C32.2956 76.0617 33.2798 65.8232 37.6367 56.8528L24.5186 50.4814Z" fill="#9CA9AF" fill-opacity="0.1"/>
<path d="M108.341 77C115.432 77.0001 121.182 82.7492 121.182 89.8408C121.182 96.9323 115.432 102.682 108.341 102.682C101.249 102.682 95.5001 96.9324 95.5 89.8408C95.5 82.7492 101.249 77 108.341 77ZM109.13 83.4688C108.694 83.0327 107.987 83.0327 107.551 83.4688C107.115 83.9047 107.115 84.6109 107.551 85.0469L111.228 88.7246H102.199C101.583 88.7247 101.083 89.2242 101.083 89.8408C101.083 90.4574 101.583 90.957 102.199 90.957H111.228L107.551 94.6338C107.115 95.0698 107.115 95.7768 107.551 96.2129C107.987 96.6489 108.694 96.6489 109.13 96.2129L113.877 91.4658C114.774 90.5684 114.774 89.1133 113.877 88.2158L109.13 83.4688Z" fill="#CAD1D4"/>
<path d="M55.8251 47.8426C56.6461 46.8099 57.8778 46.2904 59.5215 46.2904C60.1886 46.2904 60.9215 46.3933 61.7153 46.604C62.5075 46.8131 63.3093 47.1139 64.1176 47.5048L65.9986 35.3928C64.411 34.7784 62.886 34.3232 61.4218 34.032C59.9593 33.7377 58.5577 33.5913 57.2219 33.5913C54.3241 33.5913 51.6716 34.1221 49.2613 35.1837C46.8527 36.2469 44.8818 37.7396 43.3487 39.6682C41.7049 41.7367 40.4509 45.6341 39.5865 51.362C39.4743 52.0874 39.3781 52.6343 39.2931 52.9962L38.6724 56.9595H33.9545C33.9224 57.0994 33.8872 57.2378 33.8551 57.3761C33.6979 59.1583 33.5119 60.9373 33.2842 62.7131C33.0388 64.6192 32.7614 66.5204 32.4647 68.4184H36.8651L34.2624 84.9103C33.0452 92.6246 38.99 99.6055 46.7773 99.6055L51.7085 68.0871C57.0038 68.0871 61.5132 64.2251 62.3423 58.9814L62.6133 57.2748H53.3362L53.9632 53.5012C54.3818 50.7636 55.0024 48.8768 55.8219 47.8442L55.8251 47.8426Z" fill="#CAD1D4"/>
<path d="M95.7207 56.9689H86.8044L87.3801 53.5074C87.7987 50.7698 88.4193 48.883 89.2387 47.8504C90.0598 46.8177 91.2914 46.2982 92.9352 46.2982C93.6039 46.2982 94.3351 46.4011 95.129 46.6118C95.9212 46.8209 96.723 47.1217 97.5312 47.5126L99.4123 35.4006C97.8247 34.7862 96.2996 34.331 94.8355 34.0398C93.373 33.7455 91.973 33.5991 90.6371 33.5991C87.7393 33.5991 85.0869 34.1299 82.6766 35.1915C80.2679 36.2547 78.297 37.7474 76.7656 39.676C75.1218 41.7445 73.8678 45.6419 73.0034 51.3698C72.8911 52.0952 72.7949 52.6421 72.7099 53.004L72.0428 57.2794C67.9984 57.2794 64.5554 60.2277 63.9203 64.2329L63.3077 68.0917H70.3269L67.6729 84.9133C66.4557 92.6276 72.4004 99.6085 80.1877 99.6085L85.0677 68.4214H94.1602L95.7223 56.9721L95.7207 56.9689Z" fill="#CAD1D4"/>
<path d="M79.8862 39.2851C83.7718 35.5244 88.9468 34.7829 93.1612 35.1577C94.3752 35.2655 94.303 36.9222 93.1516 37.3259C85.7106 39.9381 81.1018 46.5876 77.8191 51.9906C77.1808 53.0409 75.6734 52.4844 75.8674 51.27L76.5474 47.0284C77.0028 44.1829 77.8191 41.286 79.8862 39.2851Z" fill="white" fill-opacity="0.74"/>
<path d="M46.0991 38.5969C48.8349 36.3192 52.2186 35.6774 55.1822 35.7691C56.4009 35.8077 56.3657 37.4741 55.2415 37.9502C50.1676 40.1008 46.8111 44.5917 44.3479 48.5245C43.6952 49.5652 42.1942 49.0119 42.3883 47.7991L42.6368 46.2469C43.0939 43.3966 43.8861 40.4418 46.0991 38.5969Z" fill="white" fill-opacity="0.74"/>
<path d="M58.0801 37.5253C58.7647 37.5253 59.3197 36.9686 59.3197 36.2819C59.3197 35.5952 58.7647 35.0386 58.0801 35.0386C57.3955 35.0386 56.8405 35.5952 56.8405 36.2819C56.8405 36.9686 57.3955 37.5253 58.0801 37.5253Z" fill="white" fill-opacity="0.74"/>
<path d="M42.3099 114.322C79.328 113.141 88.3364 100.539 92.5206 93.4009C93.7217 101.672 101.135 104.723 104.827 105.215C82.9215 120.229 53.9601 117.932 42.3099 114.322Z" fill="#CAD1D4"/>
</svg>
