<svg width="241" height="234" viewBox="0 0 241 234" fill="none" xmlns="http://www.w3.org/2000/svg">
<path d="M103.962 233.878C154.656 233.878 195.752 231.317 195.752 228.159C195.752 225.001 154.656 222.441 103.962 222.441C53.2677 222.441 12.1719 225.001 12.1719 228.159C12.1719 231.317 53.2677 233.878 103.962 233.878Z" fill="#CB78A0"/>
<path opacity="0.8" d="M103.962 233.878C154.656 233.878 195.752 231.317 195.752 228.159C195.752 225.001 154.656 222.441 103.962 222.441C53.2677 222.441 12.1719 225.001 12.1719 228.159C12.1719 231.317 53.2677 233.878 103.962 233.878Z" fill="white"/>
<path d="M172.94 10.7144H80.645C74.273 10.7144 69.1074 15.8799 69.1074 22.252V217.103C69.1074 223.475 74.273 228.64 80.645 228.64H172.94C179.312 228.64 184.477 223.475 184.477 217.103V22.252C184.477 15.8799 179.312 10.7144 172.94 10.7144Z" fill="#514C4E"/>
<path d="M179.348 34.6445H74.2324V204.71H179.348V34.6445Z" fill="white"/>
<path fill-rule="evenodd" clip-rule="evenodd" d="M74.0059 34.4189H179.573V204.936H74.0059V34.4189ZM74.4578 34.8709V204.484H179.121V34.8709H74.4578Z" fill="#514C4E"/>
<path d="M156.704 194.015H96.8847C96.7501 194.016 96.6166 193.99 96.492 193.939C96.3674 193.888 96.2542 193.813 96.1587 193.718C96.0632 193.623 95.9874 193.511 95.9357 193.386C95.884 193.262 95.8574 193.129 95.8574 192.994C95.8567 192.859 95.8827 192.725 95.934 192.6C95.9854 192.475 96.061 192.361 96.1566 192.266C96.2521 192.17 96.3657 192.095 96.4907 192.043C96.6157 191.992 96.7496 191.966 96.8847 191.967H156.704C156.839 191.967 156.972 191.993 157.097 192.045C157.221 192.097 157.334 192.173 157.429 192.268C157.524 192.364 157.599 192.477 157.65 192.601C157.701 192.726 157.727 192.859 157.726 192.994C157.726 193.265 157.618 193.525 157.427 193.716C157.235 193.908 156.975 194.015 156.704 194.015Z" fill="#CB78A0"/>
<g style="mix-blend-mode:multiply">
<path d="M179.348 34.8701H74.2324V41.4554H179.348V34.8701Z" fill="#CB78A0"/>
</g>
<path d="M138.22 22.739H115.358C114.946 22.739 114.55 22.5751 114.258 22.2833C113.967 21.9915 113.803 21.5958 113.803 21.1832C113.803 20.7706 113.967 20.3749 114.258 20.0831C114.55 19.7914 114.946 19.6274 115.358 19.6274H138.22C138.633 19.6274 139.028 19.7914 139.32 20.0831C139.612 20.3749 139.776 20.7706 139.776 21.1832C139.776 21.5958 139.612 21.9915 139.32 22.2833C139.028 22.5751 138.633 22.739 138.22 22.739Z" fill="#CB78A0"/>
<path fill-rule="evenodd" clip-rule="evenodd" d="M115.358 19.8533C115.005 19.8533 114.667 19.9934 114.418 20.2428C114.168 20.4922 114.028 20.8304 114.028 21.1831C114.028 21.5358 114.168 21.874 114.418 22.1234C114.667 22.3728 115.005 22.5129 115.358 22.5129H138.219C138.572 22.5129 138.91 22.3728 139.16 22.1234C139.409 21.874 139.549 21.5358 139.549 21.1831C139.549 20.8304 139.409 20.4922 139.16 20.2428C138.91 19.9934 138.572 19.8533 138.219 19.8533H115.358ZM114.098 19.9232C114.432 19.5891 114.885 19.4014 115.358 19.4014H138.219C138.692 19.4014 139.145 19.5891 139.479 19.9232C139.813 20.2574 140.001 20.7106 140.001 21.1831C140.001 21.6556 139.813 22.1088 139.479 22.443C139.145 22.7771 138.692 22.9648 138.219 22.9648H115.358C114.885 22.9648 114.432 22.7771 114.098 22.443C113.764 22.1088 113.576 21.6556 113.576 21.1831C113.576 20.7105 113.764 20.2574 114.098 19.9232Z" fill="#514C4E"/>
<path d="M133.024 214.318C133.025 213.084 132.66 211.878 131.975 210.851C131.291 209.825 130.317 209.025 129.177 208.552C128.038 208.08 126.784 207.956 125.574 208.196C124.364 208.437 123.252 209.031 122.38 209.903C121.508 210.775 120.914 211.887 120.673 213.097C120.433 214.307 120.557 215.561 121.029 216.7C121.502 217.84 122.302 218.814 123.328 219.498C124.355 220.183 125.561 220.548 126.795 220.547C128.446 220.545 130.03 219.888 131.197 218.72C132.365 217.553 133.022 215.969 133.024 214.318Z" fill="#CB78A0"/>
<path d="M129.953 211.159H123.635V217.477H129.953V211.159Z" fill="#CB78A0"/>
<path fill-rule="evenodd" clip-rule="evenodd" d="M123.41 211.159C123.41 211.034 123.511 210.933 123.636 210.933H129.954C130.079 210.933 130.18 211.034 130.18 211.159V217.477C130.18 217.601 130.079 217.703 129.954 217.703H123.636C123.511 217.703 123.41 217.601 123.41 217.477V211.159ZM123.862 211.385V217.251H129.728V211.385H123.862Z" fill="#514C4E"/>
<path d="M202.052 142.622C202.052 142.622 193.775 121.59 201.144 119.09C208.816 116.483 208.477 130.372 208.18 137.141C207.557 151.606 205.96 154.296 204.766 150.763L202.052 142.622ZM199.564 159.029C201.839 161.998 202.48 158.922 198.377 145.033C196.453 138.501 192.272 125.289 185.859 130.247C179.702 134.998 194.357 152.218 194.357 152.218L199.564 159.029ZM195.17 171.083C197.338 173.007 197.379 170.578 192.231 160.549C189.814 155.852 184.701 146.345 180.515 151.048C176.495 155.585 190.194 166.612 190.194 166.612L195.17 171.083ZM190.42 185.418C192.587 187.347 192.629 184.913 187.48 174.889C185.064 170.192 179.951 160.68 175.765 165.389C171.768 169.937 185.426 180.964 185.426 180.964L190.42 185.418ZM204.137 156.238C200.669 157.592 203.424 159.065 217.907 159.023C224.7 159.023 238.571 158.714 235.614 151.167C232.782 143.917 212.153 153.15 212.153 153.15L204.137 156.238ZM200.188 165.881C196.518 166.517 198.929 168.512 213.133 171.35C219.789 172.686 233.441 175.151 232.045 167.194C230.709 159.522 208.656 164.474 208.656 164.474L200.188 165.881ZM195.77 177.657C192.647 178.108 194.642 179.848 206.583 182.579C212.183 183.862 223.673 186.267 222.675 179.48C221.725 172.948 202.961 176.641 202.961 176.641L195.77 177.657ZM192.415 188.565C189.357 189.343 191.524 190.863 203.697 192.312C209.398 192.989 221.078 194.164 219.374 187.52C217.729 181.142 199.463 186.789 199.463 186.789L192.415 188.565ZM210.312 144.404C208.531 148.394 212.23 147.788 224.807 136.815C230.698 131.666 242.514 120.895 233.156 115.533C224.172 110.379 214.51 135.247 214.51 135.247L210.312 144.404ZM192.878 202.774C190.996 203.873 192.843 204.301 201.476 202.578C205.526 201.777 213.762 199.995 210.977 196.48C208.281 193.095 197.237 200.221 197.237 200.221L192.878 202.774Z" fill="#CB78A0"/>
<path opacity="0.3" d="M202.052 142.622C202.052 142.622 193.775 121.59 201.144 119.09C208.816 116.483 208.477 130.372 208.18 137.141C207.557 151.606 205.96 154.296 204.766 150.763L202.052 142.622ZM199.564 159.029C201.839 161.998 202.48 158.922 198.377 145.033C196.453 138.501 192.272 125.289 185.859 130.247C179.702 134.998 194.357 152.218 194.357 152.218L199.564 159.029ZM195.17 171.083C197.338 173.007 197.379 170.578 192.231 160.549C189.814 155.852 184.701 146.345 180.515 151.048C176.495 155.585 190.194 166.612 190.194 166.612L195.17 171.083ZM190.42 185.418C192.587 187.347 192.629 184.913 187.48 174.889C185.064 170.192 179.951 160.68 175.765 165.389C171.768 169.937 185.426 180.964 185.426 180.964L190.42 185.418ZM204.137 156.238C200.669 157.592 203.424 159.065 217.907 159.023C224.7 159.023 238.571 158.714 235.614 151.167C232.782 143.917 212.153 153.15 212.153 153.15L204.137 156.238ZM200.188 165.881C196.518 166.517 198.929 168.512 213.133 171.35C219.789 172.686 233.441 175.151 232.045 167.194C230.709 159.522 208.656 164.474 208.656 164.474L200.188 165.881ZM195.77 177.657C192.647 178.108 194.642 179.848 206.583 182.579C212.183 183.862 223.673 186.267 222.675 179.48C221.725 172.948 202.961 176.641 202.961 176.641L195.77 177.657ZM192.415 188.565C189.357 189.343 191.524 190.863 203.697 192.312C209.398 192.989 221.078 194.164 219.374 187.52C217.729 181.142 199.463 186.789 199.463 186.789L192.415 188.565ZM210.312 144.404C208.531 148.394 212.23 147.788 224.807 136.815C230.698 131.666 242.514 120.895 233.156 115.533C224.172 110.379 214.51 135.247 214.51 135.247L210.312 144.404ZM192.878 202.774C190.996 203.873 192.843 204.301 201.476 202.578C205.526 201.777 213.762 199.995 210.977 196.48C208.281 193.095 197.237 200.221 197.237 200.221L192.878 202.774Z" fill="white"/>
<path d="M205.704 152.414L204.261 128.407L205.704 152.414ZM201.137 160.336L192.017 139.689L201.137 160.336ZM224.676 154.332L202.818 157.467L224.676 154.332ZM196.411 171.463L184.576 156.28L196.411 171.463ZM198.489 166.808L214.795 167.627L198.489 166.808ZM194.629 178.453L207.099 179.688L194.629 178.453ZM191.619 185.851L185.425 176.535L191.619 185.851ZM190.906 189.141L205.567 189.278L190.906 189.141ZM187.937 216.646C188.035 216.638 188.127 216.592 188.191 216.518C188.256 216.443 188.288 216.346 188.282 216.248C187.349 202.246 192.765 179.314 201.452 160.49C207.004 148.459 228.767 124.814 228.999 124.577C229.069 124.507 229.108 124.412 229.108 124.312C229.108 124.213 229.069 124.118 228.999 124.048C228.965 124.014 228.924 123.986 228.879 123.968C228.834 123.949 228.786 123.939 228.737 123.939C228.689 123.939 228.641 123.949 228.596 123.968C228.551 123.986 228.51 124.014 228.476 124.048C228.256 124.286 206.405 148.02 200.805 160.157C191.957 179.438 186.613 201.955 187.563 216.296C187.571 216.39 187.613 216.479 187.682 216.543C187.751 216.608 187.842 216.645 187.937 216.646ZM205.698 152.782C205.796 152.776 205.888 152.732 205.953 152.658C206.019 152.585 206.053 152.489 206.048 152.39L204.629 128.371C204.627 128.322 204.615 128.274 204.594 128.23C204.573 128.186 204.543 128.146 204.507 128.114C204.47 128.081 204.428 128.056 204.381 128.04C204.335 128.024 204.286 128.018 204.237 128.021C204.139 128.027 204.047 128.071 203.982 128.145C203.916 128.218 203.882 128.314 203.887 128.413L205.33 152.42C205.334 152.515 205.375 152.604 205.444 152.669C205.512 152.734 205.603 152.771 205.698 152.771V152.782ZM201.268 160.674C201.357 160.634 201.427 160.56 201.462 160.469C201.498 160.378 201.496 160.277 201.458 160.187L192.331 139.541C192.292 139.451 192.219 139.38 192.127 139.345C192.036 139.309 191.934 139.311 191.844 139.351C191.755 139.39 191.684 139.463 191.649 139.555C191.613 139.646 191.615 139.748 191.654 139.837L200.775 160.484C200.804 160.55 200.851 160.607 200.911 160.647C200.971 160.687 201.042 160.709 201.114 160.71C201.175 160.713 201.236 160.701 201.292 160.674H201.268ZM202.848 157.824L224.694 154.7C224.746 154.699 224.798 154.687 224.846 154.664C224.894 154.642 224.936 154.609 224.97 154.569C225.005 154.529 225.03 154.482 225.045 154.432C225.06 154.381 225.064 154.328 225.057 154.276C225.049 154.223 225.031 154.173 225.003 154.128C224.975 154.084 224.938 154.045 224.894 154.016C224.851 153.986 224.801 153.967 224.749 153.958C224.697 153.949 224.644 153.951 224.593 153.964L202.747 157.087C202.649 157.094 202.558 157.139 202.493 157.212C202.429 157.286 202.396 157.382 202.402 157.479C202.409 157.577 202.453 157.668 202.527 157.733C202.6 157.797 202.697 157.83 202.794 157.824H202.848ZM196.619 171.76C196.696 171.699 196.747 171.61 196.759 171.513C196.771 171.415 196.744 171.316 196.684 171.238L184.844 156.025C184.783 155.946 184.693 155.894 184.595 155.882C184.496 155.869 184.397 155.896 184.318 155.956C184.239 156.017 184.188 156.106 184.175 156.205C184.162 156.303 184.189 156.403 184.25 156.482L196.114 171.719C196.148 171.763 196.192 171.799 196.243 171.824C196.293 171.848 196.349 171.861 196.405 171.861C196.493 171.857 196.578 171.821 196.642 171.76H196.619ZM215.122 167.645C215.125 167.547 215.089 167.451 215.023 167.379C214.956 167.307 214.863 167.264 214.765 167.259L198.489 166.434C198.398 166.44 198.312 166.48 198.248 166.545C198.183 166.611 198.146 166.698 198.141 166.789C198.137 166.881 198.166 166.971 198.224 167.042C198.281 167.113 198.363 167.161 198.453 167.176L214.759 168.002C214.858 168.005 214.953 167.969 215.025 167.903C215.098 167.836 215.141 167.743 215.145 167.645H215.122ZM207.444 179.723C207.449 179.674 207.445 179.625 207.432 179.578C207.418 179.53 207.395 179.486 207.364 179.448C207.333 179.41 207.295 179.378 207.251 179.355C207.208 179.332 207.16 179.318 207.111 179.314L194.641 178.084C194.593 178.079 194.544 178.084 194.497 178.098C194.451 178.112 194.408 178.136 194.37 178.166C194.333 178.197 194.301 178.235 194.279 178.278C194.256 178.321 194.242 178.368 194.237 178.417C194.229 178.514 194.259 178.611 194.321 178.687C194.384 178.762 194.473 178.81 194.57 178.821L207.04 180.056H207.076C207.171 180.062 207.266 180.031 207.339 179.969C207.412 179.907 207.458 179.819 207.467 179.723H207.444ZM191.797 186.16C191.879 186.106 191.937 186.021 191.957 185.924C191.977 185.827 191.958 185.726 191.904 185.643L185.74 176.327C185.684 176.246 185.598 176.191 185.502 176.172C185.406 176.153 185.306 176.173 185.224 176.226C185.141 176.28 185.084 176.365 185.064 176.462C185.044 176.559 185.063 176.66 185.117 176.742L191.28 186.059C191.316 186.11 191.363 186.152 191.417 186.181C191.472 186.21 191.533 186.225 191.595 186.225C191.675 186.23 191.755 186.207 191.821 186.16H191.797ZM205.941 189.278C205.94 189.18 205.901 189.086 205.832 189.017C205.764 188.947 205.671 188.907 205.573 188.903L190.912 188.767C190.815 188.767 190.721 188.806 190.652 188.875C190.583 188.944 190.544 189.037 190.544 189.135C190.542 189.184 190.551 189.233 190.569 189.279C190.586 189.324 190.613 189.366 190.648 189.401C190.682 189.436 190.723 189.464 190.769 189.482C190.814 189.501 190.863 189.51 190.912 189.509L205.573 189.646C205.623 189.648 205.673 189.64 205.72 189.623C205.768 189.606 205.811 189.579 205.847 189.545C205.884 189.51 205.913 189.469 205.933 189.423C205.954 189.377 205.964 189.328 205.965 189.278H205.941ZM186.269 211.201C186.298 211.135 188.798 204.247 196.316 202.603C196.413 202.581 196.497 202.522 196.55 202.439C196.604 202.355 196.622 202.254 196.601 202.157C196.577 202.062 196.517 201.98 196.434 201.928C196.351 201.876 196.251 201.858 196.155 201.878C188.228 203.612 185.598 210.886 185.568 210.957C185.537 211.051 185.544 211.153 185.588 211.242C185.631 211.33 185.707 211.399 185.8 211.432H185.918C185.997 211.439 186.076 211.42 186.144 211.379C186.211 211.337 186.263 211.275 186.292 211.201H186.269ZM187.937 216.646C188.035 216.638 188.127 216.592 188.191 216.518C188.256 216.443 188.288 216.346 188.282 216.248C187.349 202.246 192.765 179.314 201.452 160.49C207.004 148.459 228.767 124.814 228.999 124.577C229.069 124.507 229.108 124.412 229.108 124.312C229.108 124.213 229.069 124.118 228.999 124.048C228.965 124.014 228.924 123.986 228.879 123.968C228.834 123.949 228.786 123.939 228.737 123.939C228.689 123.939 228.641 123.949 228.596 123.968C228.551 123.986 228.51 124.014 228.476 124.048C228.256 124.286 206.405 148.02 200.805 160.157C191.957 179.438 186.613 201.955 187.563 216.296C187.571 216.39 187.613 216.479 187.682 216.543C187.751 216.608 187.842 216.645 187.937 216.646ZM205.698 152.782C205.796 152.776 205.888 152.732 205.953 152.658C206.019 152.585 206.053 152.489 206.048 152.39L204.629 128.371C204.627 128.322 204.615 128.274 204.594 128.23C204.573 128.186 204.543 128.146 204.507 128.114C204.47 128.081 204.428 128.056 204.381 128.04C204.335 128.024 204.286 128.018 204.237 128.021C204.139 128.027 204.047 128.071 203.982 128.145C203.916 128.218 203.882 128.314 203.887 128.413L205.33 152.42C205.334 152.515 205.375 152.604 205.444 152.669C205.512 152.734 205.603 152.771 205.698 152.771V152.782ZM201.268 160.674C201.357 160.634 201.427 160.56 201.462 160.469C201.498 160.378 201.496 160.277 201.458 160.187L192.331 139.541C192.292 139.451 192.219 139.38 192.127 139.345C192.036 139.309 191.934 139.311 191.844 139.351C191.755 139.39 191.684 139.463 191.649 139.555C191.613 139.646 191.615 139.748 191.654 139.837L200.775 160.484C200.804 160.55 200.851 160.607 200.911 160.647C200.971 160.687 201.042 160.709 201.114 160.71C201.175 160.713 201.236 160.701 201.292 160.674H201.268ZM202.848 157.824L224.694 154.7C224.746 154.699 224.798 154.687 224.846 154.664C224.894 154.642 224.936 154.609 224.97 154.569C225.005 154.529 225.03 154.482 225.045 154.432C225.06 154.381 225.064 154.328 225.057 154.276C225.049 154.223 225.031 154.173 225.003 154.128C224.975 154.084 224.938 154.045 224.894 154.016C224.851 153.986 224.801 153.967 224.749 153.958C224.697 153.949 224.644 153.951 224.593 153.964L202.747 157.087C202.649 157.094 202.558 157.139 202.493 157.212C202.429 157.286 202.396 157.382 202.402 157.479C202.409 157.577 202.453 157.668 202.527 157.733C202.6 157.797 202.697 157.83 202.794 157.824H202.848ZM196.619 171.76C196.696 171.699 196.747 171.61 196.759 171.513C196.771 171.415 196.744 171.316 196.684 171.238L184.844 156.025C184.813 155.986 184.776 155.953 184.733 155.928C184.691 155.904 184.644 155.888 184.595 155.882C184.546 155.875 184.497 155.879 184.449 155.891C184.402 155.904 184.357 155.926 184.318 155.956C184.279 155.986 184.246 156.024 184.222 156.066C184.197 156.109 184.181 156.156 184.175 156.205C184.169 156.254 184.172 156.303 184.185 156.351C184.198 156.398 184.22 156.443 184.25 156.482L196.114 171.719C196.148 171.763 196.192 171.799 196.243 171.824C196.293 171.848 196.349 171.861 196.405 171.861C196.493 171.857 196.578 171.821 196.642 171.76H196.619ZM215.122 167.645C215.125 167.547 215.089 167.451 215.023 167.379C214.956 167.307 214.863 167.264 214.765 167.259L198.489 166.434C198.398 166.44 198.312 166.48 198.248 166.545C198.183 166.611 198.146 166.698 198.141 166.789C198.137 166.881 198.166 166.971 198.224 167.042C198.281 167.113 198.363 167.161 198.453 167.176L214.759 168.002C214.858 168.005 214.953 167.969 215.025 167.903C215.098 167.836 215.141 167.743 215.145 167.645H215.122ZM207.444 179.723C207.449 179.674 207.445 179.625 207.432 179.578C207.418 179.53 207.395 179.486 207.364 179.448C207.333 179.41 207.295 179.378 207.251 179.355C207.208 179.332 207.16 179.318 207.111 179.314L194.641 178.084C194.593 178.079 194.544 178.084 194.497 178.098C194.451 178.112 194.408 178.136 194.37 178.166C194.333 178.197 194.301 178.235 194.279 178.278C194.256 178.321 194.242 178.368 194.237 178.417C194.229 178.514 194.259 178.611 194.321 178.687C194.384 178.762 194.473 178.81 194.57 178.821L207.04 180.056H207.076C207.171 180.062 207.266 180.031 207.339 179.969C207.412 179.907 207.458 179.819 207.467 179.723H207.444ZM191.797 186.16C191.879 186.106 191.937 186.021 191.957 185.924C191.977 185.827 191.958 185.726 191.904 185.643L185.74 176.327C185.684 176.246 185.598 176.191 185.502 176.172C185.406 176.153 185.306 176.173 185.224 176.226C185.141 176.28 185.084 176.365 185.064 176.462C185.044 176.559 185.063 176.66 185.117 176.742L191.28 186.059C191.316 186.11 191.363 186.152 191.417 186.181C191.472 186.21 191.533 186.225 191.595 186.225C191.675 186.23 191.755 186.207 191.821 186.16H191.797ZM205.941 189.278C205.94 189.18 205.901 189.086 205.832 189.017C205.764 188.947 205.671 188.907 205.573 188.903L190.912 188.767C190.815 188.767 190.721 188.806 190.652 188.875C190.583 188.944 190.544 189.037 190.544 189.135C190.542 189.184 190.551 189.233 190.569 189.279C190.586 189.324 190.613 189.366 190.648 189.401C190.682 189.436 190.723 189.464 190.769 189.482C190.814 189.501 190.863 189.51 190.912 189.509L205.573 189.646C205.623 189.648 205.673 189.64 205.72 189.623C205.768 189.606 205.811 189.579 205.847 189.545C205.884 189.51 205.913 189.469 205.933 189.423C205.954 189.377 205.964 189.328 205.965 189.278H205.941ZM186.269 211.201C186.298 211.135 188.798 204.247 196.316 202.603C196.413 202.581 196.497 202.522 196.55 202.439C196.604 202.355 196.622 202.254 196.601 202.157C196.577 202.062 196.517 201.98 196.434 201.928C196.351 201.876 196.251 201.858 196.155 201.878C188.228 203.612 185.598 210.886 185.568 210.957C185.537 211.051 185.544 211.153 185.588 211.242C185.631 211.33 185.707 211.399 185.8 211.432H185.918C185.997 211.439 186.076 211.42 186.144 211.379C186.211 211.337 186.263 211.275 186.292 211.201H186.269Z" fill="#CB78A0"/>
<path opacity="0.2" d="M205.704 152.414L204.261 128.407L205.704 152.414ZM201.137 160.336L192.017 139.689L201.137 160.336ZM224.676 154.332L202.818 157.467L224.676 154.332ZM196.411 171.463L184.576 156.28L196.411 171.463ZM198.489 166.808L214.795 167.627L198.489 166.808ZM194.629 178.453L207.099 179.688L194.629 178.453ZM191.619 185.851L185.425 176.535L191.619 185.851ZM190.906 189.141L205.567 189.278L190.906 189.141ZM187.937 216.646C188.035 216.638 188.127 216.592 188.191 216.518C188.256 216.443 188.288 216.346 188.282 216.248C187.349 202.246 192.765 179.314 201.452 160.49C207.004 148.459 228.767 124.814 228.999 124.577C229.069 124.507 229.108 124.412 229.108 124.312C229.108 124.213 229.069 124.118 228.999 124.048C228.965 124.014 228.924 123.986 228.879 123.968C228.834 123.949 228.786 123.939 228.737 123.939C228.689 123.939 228.641 123.949 228.596 123.968C228.551 123.986 228.51 124.014 228.476 124.048C228.256 124.286 206.405 148.02 200.805 160.157C191.957 179.438 186.613 201.955 187.563 216.296C187.571 216.39 187.613 216.479 187.682 216.543C187.751 216.608 187.842 216.645 187.937 216.646ZM205.698 152.782C205.796 152.776 205.888 152.732 205.953 152.658C206.019 152.585 206.053 152.489 206.048 152.39L204.629 128.371C204.627 128.322 204.615 128.274 204.594 128.23C204.573 128.186 204.543 128.146 204.507 128.114C204.47 128.081 204.428 128.056 204.381 128.04C204.335 128.024 204.286 128.018 204.237 128.021C204.139 128.027 204.047 128.071 203.982 128.145C203.916 128.218 203.882 128.314 203.887 128.413L205.33 152.42C205.334 152.515 205.375 152.604 205.444 152.669C205.512 152.734 205.603 152.771 205.698 152.771V152.782ZM201.268 160.674C201.357 160.634 201.427 160.56 201.462 160.469C201.498 160.378 201.496 160.277 201.458 160.187L192.331 139.541C192.292 139.451 192.219 139.38 192.127 139.345C192.036 139.309 191.934 139.311 191.844 139.351C191.755 139.39 191.684 139.463 191.649 139.555C191.613 139.646 191.615 139.748 191.654 139.837L200.775 160.484C200.804 160.55 200.851 160.607 200.911 160.647C200.971 160.687 201.042 160.709 201.114 160.71C201.175 160.713 201.236 160.701 201.292 160.674H201.268ZM202.848 157.824L224.694 154.7C224.746 154.699 224.798 154.687 224.846 154.664C224.894 154.642 224.936 154.609 224.97 154.569C225.005 154.529 225.03 154.482 225.045 154.432C225.06 154.381 225.064 154.328 225.057 154.276C225.049 154.223 225.031 154.173 225.003 154.128C224.975 154.084 224.938 154.045 224.894 154.016C224.851 153.986 224.801 153.967 224.749 153.958C224.697 153.949 224.644 153.951 224.593 153.964L202.747 157.087C202.649 157.094 202.558 157.139 202.493 157.212C202.429 157.286 202.396 157.382 202.402 157.479C202.409 157.577 202.453 157.668 202.527 157.733C202.6 157.797 202.697 157.83 202.794 157.824H202.848ZM196.619 171.76C196.696 171.699 196.747 171.61 196.759 171.513C196.771 171.415 196.744 171.316 196.684 171.238L184.844 156.025C184.783 155.946 184.693 155.894 184.595 155.882C184.496 155.869 184.397 155.896 184.318 155.956C184.239 156.017 184.188 156.106 184.175 156.205C184.162 156.303 184.189 156.403 184.25 156.482L196.114 171.719C196.148 171.763 196.192 171.799 196.243 171.824C196.293 171.848 196.349 171.861 196.405 171.861C196.493 171.857 196.578 171.821 196.642 171.76H196.619ZM215.122 167.645C215.125 167.547 215.089 167.451 215.023 167.379C214.956 167.307 214.863 167.264 214.765 167.259L198.489 166.434C198.398 166.44 198.312 166.48 198.248 166.545C198.183 166.611 198.146 166.698 198.141 166.789C198.137 166.881 198.166 166.971 198.224 167.042C198.281 167.113 198.363 167.161 198.453 167.176L214.759 168.002C214.858 168.005 214.953 167.969 215.025 167.903C215.098 167.836 215.141 167.743 215.145 167.645H215.122ZM207.444 179.723C207.449 179.674 207.445 179.625 207.432 179.578C207.418 179.53 207.395 179.486 207.364 179.448C207.333 179.41 207.295 179.378 207.251 179.355C207.208 179.332 207.16 179.318 207.111 179.314L194.641 178.084C194.593 178.079 194.544 178.084 194.497 178.098C194.451 178.112 194.408 178.136 194.37 178.166C194.333 178.197 194.301 178.235 194.279 178.278C194.256 178.321 194.242 178.368 194.237 178.417C194.229 178.514 194.259 178.611 194.321 178.687C194.384 178.762 194.473 178.81 194.57 178.821L207.04 180.056H207.076C207.171 180.062 207.266 180.031 207.339 179.969C207.412 179.907 207.458 179.819 207.467 179.723H207.444ZM191.797 186.16C191.879 186.106 191.937 186.021 191.957 185.924C191.977 185.827 191.958 185.726 191.904 185.643L185.74 176.327C185.684 176.246 185.598 176.191 185.502 176.172C185.406 176.153 185.306 176.173 185.224 176.226C185.141 176.28 185.084 176.365 185.064 176.462C185.044 176.559 185.063 176.66 185.117 176.742L191.28 186.059C191.316 186.11 191.363 186.152 191.417 186.181C191.472 186.21 191.533 186.225 191.595 186.225C191.675 186.23 191.755 186.207 191.821 186.16H191.797ZM205.941 189.278C205.94 189.18 205.901 189.086 205.832 189.017C205.764 188.947 205.671 188.907 205.573 188.903L190.912 188.767C190.815 188.767 190.721 188.806 190.652 188.875C190.583 188.944 190.544 189.037 190.544 189.135C190.542 189.184 190.551 189.233 190.569 189.279C190.586 189.324 190.613 189.366 190.648 189.401C190.682 189.436 190.723 189.464 190.769 189.482C190.814 189.501 190.863 189.51 190.912 189.509L205.573 189.646C205.623 189.648 205.673 189.64 205.72 189.623C205.768 189.606 205.811 189.579 205.847 189.545C205.884 189.51 205.913 189.469 205.933 189.423C205.954 189.377 205.964 189.328 205.965 189.278H205.941ZM186.269 211.201C186.298 211.135 188.798 204.247 196.316 202.603C196.413 202.581 196.497 202.522 196.55 202.439C196.604 202.355 196.622 202.254 196.601 202.157C196.577 202.062 196.517 201.98 196.434 201.928C196.351 201.876 196.251 201.858 196.155 201.878C188.228 203.612 185.598 210.886 185.568 210.957C185.537 211.051 185.544 211.153 185.588 211.242C185.631 211.33 185.707 211.399 185.8 211.432H185.918C185.997 211.439 186.076 211.42 186.144 211.379C186.211 211.337 186.263 211.275 186.292 211.201H186.269ZM187.937 216.646C188.035 216.638 188.127 216.592 188.191 216.518C188.256 216.443 188.288 216.346 188.282 216.248C187.349 202.246 192.765 179.314 201.452 160.49C207.004 148.459 228.767 124.814 228.999 124.577C229.069 124.507 229.108 124.412 229.108 124.312C229.108 124.213 229.069 124.118 228.999 124.048C228.965 124.014 228.924 123.986 228.879 123.968C228.834 123.949 228.786 123.939 228.737 123.939C228.689 123.939 228.641 123.949 228.596 123.968C228.551 123.986 228.51 124.014 228.476 124.048C228.256 124.286 206.405 148.02 200.805 160.157C191.957 179.438 186.613 201.955 187.563 216.296C187.571 216.39 187.613 216.479 187.682 216.543C187.751 216.608 187.842 216.645 187.937 216.646ZM205.698 152.782C205.796 152.776 205.888 152.732 205.953 152.658C206.019 152.585 206.053 152.489 206.048 152.39L204.629 128.371C204.627 128.322 204.615 128.274 204.594 128.23C204.573 128.186 204.543 128.146 204.507 128.114C204.47 128.081 204.428 128.056 204.381 128.04C204.335 128.024 204.286 128.018 204.237 128.021C204.139 128.027 204.047 128.071 203.982 128.145C203.916 128.218 203.882 128.314 203.887 128.413L205.33 152.42C205.334 152.515 205.375 152.604 205.444 152.669C205.512 152.734 205.603 152.771 205.698 152.771V152.782ZM201.268 160.674C201.357 160.634 201.427 160.56 201.462 160.469C201.498 160.378 201.496 160.277 201.458 160.187L192.331 139.541C192.292 139.451 192.219 139.38 192.127 139.345C192.036 139.309 191.934 139.311 191.844 139.351C191.755 139.39 191.684 139.463 191.649 139.555C191.613 139.646 191.615 139.748 191.654 139.837L200.775 160.484C200.804 160.55 200.851 160.607 200.911 160.647C200.971 160.687 201.042 160.709 201.114 160.71C201.175 160.713 201.236 160.701 201.292 160.674H201.268ZM202.848 157.824L224.694 154.7C224.746 154.699 224.798 154.687 224.846 154.664C224.894 154.642 224.936 154.609 224.97 154.569C225.005 154.529 225.03 154.482 225.045 154.432C225.06 154.381 225.064 154.328 225.057 154.276C225.049 154.223 225.031 154.173 225.003 154.128C224.975 154.084 224.938 154.045 224.894 154.016C224.851 153.986 224.801 153.967 224.749 153.958C224.697 153.949 224.644 153.951 224.593 153.964L202.747 157.087C202.649 157.094 202.558 157.139 202.493 157.212C202.429 157.286 202.396 157.382 202.402 157.479C202.409 157.577 202.453 157.668 202.527 157.733C202.6 157.797 202.697 157.83 202.794 157.824H202.848ZM196.619 171.76C196.696 171.699 196.747 171.61 196.759 171.513C196.771 171.415 196.744 171.316 196.684 171.238L184.844 156.025C184.813 155.986 184.776 155.953 184.733 155.928C184.691 155.904 184.644 155.888 184.595 155.882C184.546 155.875 184.497 155.879 184.449 155.891C184.402 155.904 184.357 155.926 184.318 155.956C184.279 155.986 184.246 156.024 184.222 156.066C184.197 156.109 184.181 156.156 184.175 156.205C184.169 156.254 184.172 156.303 184.185 156.351C184.198 156.398 184.22 156.443 184.25 156.482L196.114 171.719C196.148 171.763 196.192 171.799 196.243 171.824C196.293 171.848 196.349 171.861 196.405 171.861C196.493 171.857 196.578 171.821 196.642 171.76H196.619ZM215.122 167.645C215.125 167.547 215.089 167.451 215.023 167.379C214.956 167.307 214.863 167.264 214.765 167.259L198.489 166.434C198.398 166.44 198.312 166.48 198.248 166.545C198.183 166.611 198.146 166.698 198.141 166.789C198.137 166.881 198.166 166.971 198.224 167.042C198.281 167.113 198.363 167.161 198.453 167.176L214.759 168.002C214.858 168.005 214.953 167.969 215.025 167.903C215.098 167.836 215.141 167.743 215.145 167.645H215.122ZM207.444 179.723C207.449 179.674 207.445 179.625 207.432 179.578C207.418 179.53 207.395 179.486 207.364 179.448C207.333 179.41 207.295 179.378 207.251 179.355C207.208 179.332 207.16 179.318 207.111 179.314L194.641 178.084C194.593 178.079 194.544 178.084 194.497 178.098C194.451 178.112 194.408 178.136 194.37 178.166C194.333 178.197 194.301 178.235 194.279 178.278C194.256 178.321 194.242 178.368 194.237 178.417C194.229 178.514 194.259 178.611 194.321 178.687C194.384 178.762 194.473 178.81 194.57 178.821L207.04 180.056H207.076C207.171 180.062 207.266 180.031 207.339 179.969C207.412 179.907 207.458 179.819 207.467 179.723H207.444ZM191.797 186.16C191.879 186.106 191.937 186.021 191.957 185.924C191.977 185.827 191.958 185.726 191.904 185.643L185.74 176.327C185.684 176.246 185.598 176.191 185.502 176.172C185.406 176.153 185.306 176.173 185.224 176.226C185.141 176.28 185.084 176.365 185.064 176.462C185.044 176.559 185.063 176.66 185.117 176.742L191.28 186.059C191.316 186.11 191.363 186.152 191.417 186.181C191.472 186.21 191.533 186.225 191.595 186.225C191.675 186.23 191.755 186.207 191.821 186.16H191.797ZM205.941 189.278C205.94 189.18 205.901 189.086 205.832 189.017C205.764 188.947 205.671 188.907 205.573 188.903L190.912 188.767C190.815 188.767 190.721 188.806 190.652 188.875C190.583 188.944 190.544 189.037 190.544 189.135C190.542 189.184 190.551 189.233 190.569 189.279C190.586 189.324 190.613 189.366 190.648 189.401C190.682 189.436 190.723 189.464 190.769 189.482C190.814 189.501 190.863 189.51 190.912 189.509L205.573 189.646C205.623 189.648 205.673 189.64 205.72 189.623C205.768 189.606 205.811 189.579 205.847 189.545C205.884 189.51 205.913 189.469 205.933 189.423C205.954 189.377 205.964 189.328 205.965 189.278H205.941ZM186.269 211.201C186.298 211.135 188.798 204.247 196.316 202.603C196.413 202.581 196.497 202.522 196.55 202.439C196.604 202.355 196.622 202.254 196.601 202.157C196.577 202.062 196.517 201.98 196.434 201.928C196.351 201.876 196.251 201.858 196.155 201.878C188.228 203.612 185.598 210.886 185.568 210.957C185.537 211.051 185.544 211.153 185.588 211.242C185.631 211.33 185.707 211.399 185.8 211.432H185.918C185.997 211.439 186.076 211.42 186.144 211.379C186.211 211.337 186.263 211.275 186.292 211.201H186.269Z" fill="#514C4E"/>
<path d="M197.635 206.177H180.824V209.657H182.291L185.325 228.641H193.134L196.168 209.657H197.635V206.177Z" fill="#CB78A0"/>
<path opacity="0.3" d="M197.635 206.177H180.824V209.657H182.291L185.325 228.641H193.134L196.168 209.657H197.635V206.177Z" fill="white"/>
<path d="M46.2876 100.955L26.7337 94.5713L24.9938 89.9753L21.0213 89.8506L13.8125 88.4849L14.6795 89.9753L23.7528 96.5606L25.9914 97.6769L46.442 108.359L46.2876 100.955Z" fill="white"/>
<path fill-rule="evenodd" clip-rule="evenodd" d="M13.4795 88.249L21.0402 89.6815L25.1127 89.8093L26.8639 94.4353L46.4551 100.831L46.618 108.643L25.9161 97.8287L23.6649 96.7061L14.5512 90.0915L13.4795 88.249ZM14.1463 88.7206L14.8085 89.859L23.8414 96.415L26.0703 97.5265L46.2668 108.076L46.1209 101.079L26.6042 94.7074L24.8757 90.1413L21.0031 90.0197L14.1463 88.7206Z" fill="#514C4E"/>
<path d="M24.9949 89.9752L23.1304 88.8589L19.4072 90.2246L20.0248 90.9669L24.9949 89.9752Z" fill="white"/>
<path fill-rule="evenodd" clip-rule="evenodd" d="M23.0717 88.6993C23.1198 88.6817 23.1733 88.6867 23.2172 88.7131L25.0818 89.8294C25.1419 89.8654 25.1737 89.9348 25.1618 90.0038C25.1498 90.0729 25.0966 90.1276 25.0278 90.1413L20.0577 91.1329C19.9967 91.1451 19.9339 91.1229 19.8941 91.0751L19.2765 90.3328C19.2413 90.2904 19.2288 90.2335 19.2431 90.1803C19.2574 90.127 19.2967 90.0841 19.3485 90.0651L23.0717 88.6993ZM19.6912 90.3007L20.0903 90.7805L24.5303 89.8946L23.1124 89.0457L19.6912 90.3007Z" fill="#514C4E"/>
<path d="M46.2876 100.955L26.7337 94.5713L24.9938 89.9753L21.0213 89.8506L13.8125 88.4849L14.6795 89.9753L23.7528 96.5606L25.9914 97.6769L46.442 108.359L46.2876 100.955Z" fill="white"/>
<path fill-rule="evenodd" clip-rule="evenodd" d="M13.4795 88.249L21.0402 89.6815L25.1127 89.8093L26.8639 94.4353L46.4551 100.831L46.618 108.643L25.9161 97.8287L23.6649 96.7061L14.5512 90.0915L13.4795 88.249ZM14.1463 88.7206L14.8085 89.859L23.8414 96.415L26.0703 97.5265L46.2668 108.076L46.1209 101.079L26.6042 94.7074L24.8757 90.1413L21.0031 90.0197L14.1463 88.7206Z" fill="#514C4E"/>
<path d="M24.9949 89.9752L23.1304 88.8589L19.4072 90.2246L20.0248 90.9669L24.9949 89.9752Z" fill="white"/>
<mask id="mask0_615_1296" style="mask-type:luminance" maskUnits="userSpaceOnUse" x="19" y="88" width="6" height="3">
<path d="M24.993 89.9752L23.1284 88.8589L19.4053 90.2246L20.0228 90.9669L24.993 89.9752Z" fill="white"/>
</mask>
<g mask="url(#mask0_615_1296)">
<path opacity="0.5" d="M24.9939 89.9752L23.1294 88.8589L19.4062 90.2246L20.0238 90.9669L24.9939 89.9752Z" fill="#CB78A0"/>
<path opacity="0.5" fill-rule="evenodd" clip-rule="evenodd" d="M23.0717 88.6998C23.1198 88.6822 23.1733 88.6872 23.2172 88.7135L25.0818 89.8299C25.1419 89.8659 25.1737 89.9352 25.1618 90.0043C25.1498 90.0734 25.0966 90.1281 25.0278 90.1418L20.0577 91.1334C19.9967 91.1456 19.9339 91.1234 19.8941 91.0756L19.2765 90.3333C19.2413 90.2909 19.2288 90.234 19.2431 90.1808C19.2574 90.1275 19.2967 90.0846 19.3485 90.0656L23.0717 88.6998ZM19.6912 90.3012L20.0903 90.781L24.5303 89.8951L23.1124 89.0462L19.6912 90.3012Z" fill="#514C4E"/>
</g>
<path d="M50.4387 59.5249C50.4387 59.5249 50.1358 62.1971 50.89 63.9131C51.6441 65.6292 55.8304 71.4426 55.8304 71.4426L48.016 77.7072C48.016 77.7072 44.7738 71.1754 44.1562 70.1184C43.5387 69.0614 42.7964 64.5129 44.8094 61.2529C46.8224 57.9929 49.7202 57.1141 50.4387 59.5249Z" fill="white"/>
<path fill-rule="evenodd" clip-rule="evenodd" d="M48.1588 58.4248C47.1469 58.7341 45.9479 59.7317 44.9535 61.3422C43.9694 62.9358 43.6547 64.8529 43.6657 66.5108C43.6712 67.3385 43.7579 68.0973 43.8807 68.7127C44.0045 69.3326 44.1623 69.7932 44.3024 70.033C44.6146 70.5674 45.5828 72.4712 46.4689 74.2331C46.9129 75.1159 47.3376 75.9656 47.6512 76.5946C47.8081 76.9091 47.9371 77.1684 48.027 77.3491L48.0739 77.4433L55.5985 71.411C55.5738 71.3764 55.5444 71.3353 55.5107 71.2882C55.3947 71.1257 55.228 70.8917 55.0257 70.6055C54.6211 70.0333 54.0738 69.2522 53.5027 68.4173C52.9317 67.5827 52.3365 66.6933 51.8365 65.9046C51.3385 65.1191 50.9288 64.4239 50.7344 63.9816C50.3436 63.0922 50.2303 61.9679 50.2116 61.0793C50.2022 60.6324 50.2167 60.2401 50.2335 59.9593C50.2419 59.8189 50.2509 59.7061 50.2579 59.6282C50.2612 59.5912 50.264 59.5621 50.2661 59.5416C50.0951 58.9907 49.8084 58.6472 49.4618 58.4708C49.107 58.2902 48.6621 58.2709 48.1588 58.4248ZM50.6069 59.5442L50.6068 59.5457L50.6062 59.551L50.6039 59.5727C50.602 59.592 50.5991 59.6209 50.5958 59.6583C50.5891 59.7333 50.5804 59.8427 50.5722 59.9796C50.5558 60.2535 50.5417 60.6364 50.5508 61.0721C50.5692 61.9486 50.6817 63.0183 51.045 63.8451C51.2276 64.2608 51.624 64.9358 52.123 65.723C52.62 66.5069 53.2128 67.3926 53.7827 68.2258C54.3525 69.0588 54.8988 69.8383 55.3027 70.4097C55.5047 70.6953 55.671 70.9289 55.7868 71.091C55.8447 71.1721 55.89 71.2353 55.9207 71.2782L55.9676 71.3434C55.9676 71.3434 55.9678 71.3436 55.8301 71.4428L55.9676 71.3434L56.0619 71.4744L47.9574 77.9715L47.8637 77.7828L48.0157 77.7074C47.8637 77.7828 47.8637 77.7828 47.8637 77.7828L47.7233 77.5002C47.6334 77.3196 47.5044 77.0603 47.3476 76.746C47.0341 76.1172 46.6096 75.2679 46.1658 74.3856C45.2765 72.6173 44.3148 70.7267 44.0095 70.2041C43.8408 69.9155 43.6742 69.4111 43.548 68.7791C43.421 68.1424 43.3321 67.3622 43.3265 66.5131C43.3152 64.8175 43.6358 62.8303 44.6648 61.164C45.6833 59.5145 46.9397 58.4427 48.0596 58.1003C48.6222 57.9283 49.1622 57.9376 49.6157 58.1684C50.0708 58.4001 50.4115 58.8409 50.6009 59.4767L50.6108 59.5098L50.6069 59.5442Z" fill="#514C4E"/>
<path d="M52.8616 54.632C52.3806 51.663 48.9781 45.624 43.5804 45.8556C40.077 46.01 38.4381 46.7166 36.9179 47.5776C35.6788 48.3077 34.5238 49.1719 33.4739 50.1547C30.8374 53.3197 29.9111 54.1867 30.4217 56.6094C30.3798 57.5757 30.5312 58.5407 30.8671 59.4478C31.6746 61.6033 32.2269 63.0106 32.9276 64.0379C32.7138 65.0414 32.1556 67.6898 32.1259 68.2954C32.0963 68.9011 33.9074 68.4795 34.8218 68.2479C36.5201 72.0483 39.6316 74.6848 40.5995 74.9876C42.2859 75.5161 44.9521 72.743 46.3653 70.5935C47.7786 68.4439 46.7098 66.0271 46.7157 65.0651C46.7216 64.1032 49.8925 61.9892 51.0683 61.3182C52.244 60.6472 53.3366 57.5951 52.8616 54.632Z" fill="white"/>
<path fill-rule="evenodd" clip-rule="evenodd" d="M50.1931 48.9337C51.7966 50.8067 52.7824 53.0868 53.0283 54.605L53.0284 54.6053C53.2703 56.1142 53.1131 57.6436 52.7459 58.8827C52.5623 59.5024 52.3249 60.0535 52.0555 60.4951C51.7877 60.9342 51.4807 61.2774 51.152 61.465C50.5704 61.7969 49.4906 62.4887 48.5571 63.2159C48.0901 63.5797 47.6646 63.9486 47.3573 64.2826C47.2035 64.4498 47.0829 64.6042 47.0015 64.7416C46.9187 64.8815 46.8851 64.9891 46.8846 65.0662C46.8833 65.2853 46.944 65.5958 47.0227 65.9985L47.023 66.0001C47.1002 66.3951 47.1907 66.8625 47.2365 67.3687C47.3282 68.3827 47.242 69.5676 46.5065 70.6863C45.793 71.7715 44.763 73.0151 43.6943 73.9236C43.1601 74.3776 42.6101 74.7532 42.0799 74.9815C41.5511 75.2092 41.0241 75.2977 40.549 75.1489C40.2771 75.0638 39.8815 74.8265 39.4243 74.4752C38.9621 74.12 38.4228 73.6372 37.8619 73.0456C36.7657 71.8893 35.5806 70.3108 34.726 68.4462C34.2751 68.5582 33.6591 68.6994 33.1373 68.7537C32.8518 68.7834 32.5762 68.7894 32.3676 68.7406C32.263 68.7162 32.1584 68.6743 32.0794 68.5994C31.9941 68.5184 31.9511 68.4105 31.9572 68.2872C31.9728 67.9689 32.1232 67.1403 32.2919 66.2832C32.4545 65.4575 32.638 64.5868 32.7474 64.0729C32.0521 63.0309 31.4989 61.6159 30.7088 59.5071L30.7086 59.5064C30.3674 58.585 30.2123 57.6051 30.252 56.6234C29.9953 55.3903 30.1027 54.5302 30.6191 53.5798C31.0527 52.7819 31.7778 51.9168 32.7962 50.7017C32.9702 50.494 33.1528 50.2761 33.344 50.0466L33.3507 50.0386L33.3584 50.0314C34.4174 49.0401 35.5823 48.1684 36.8321 47.4321L36.8346 47.4306L36.8346 47.4306C38.377 46.557 40.0417 45.8424 43.5729 45.6868L43.5731 45.6868C46.3423 45.568 48.5881 47.059 50.1931 48.9337ZM43.5877 46.0244C46.2161 45.9117 48.3704 47.3244 49.9364 49.1535C51.5038 50.9843 52.4597 53.2082 52.6947 54.6591C52.9278 56.1131 52.7762 57.5912 52.4219 58.7867C52.2449 59.3842 52.0183 59.9072 51.767 60.3192C51.5141 60.7337 51.2437 61.0236 50.9845 61.1715C50.3903 61.5106 49.2969 62.2113 48.3495 62.9493C47.8761 63.3181 47.4342 63.7 47.1086 64.0538C46.9459 64.2307 46.8085 64.4044 46.7108 64.5694C46.6145 64.7319 46.5477 64.9007 46.5467 65.0641C46.5451 65.3175 46.6112 65.6554 46.6842 66.0283L46.6913 66.0649C46.7687 66.4607 46.8559 66.9123 46.9 67.3992C46.9879 68.3715 46.9019 69.4697 46.2241 70.5007C45.5243 71.565 44.5147 72.7827 43.4754 73.6661C42.9556 74.1079 42.4345 74.4609 41.9463 74.6711C41.4568 74.8819 41.0181 74.9418 40.65 74.8264L40.6499 74.8264C40.4379 74.76 40.0816 74.5542 39.6302 74.2072C39.1836 73.8641 38.6574 73.3935 38.1071 72.8131C37.0063 71.652 35.8159 70.0583 34.976 68.179L34.9181 68.0493L34.7803 68.0842C34.3226 68.2001 33.6521 68.3604 33.1023 68.4176C32.8244 68.4465 32.5956 68.4469 32.4445 68.4116C32.3692 68.394 32.33 68.3713 32.312 68.3542C32.3004 68.3432 32.2933 68.3319 32.2947 68.3037C32.3088 68.0163 32.4523 67.2179 32.6235 66.3485C32.7932 65.4866 32.986 64.5747 33.0928 64.0731L33.1079 64.0024L33.0671 63.9427C32.3803 62.9357 31.835 61.5499 31.0254 59.3888C30.6974 58.5029 30.5496 57.5605 30.5905 56.6167L30.5914 56.5954L30.587 56.5745C30.3386 55.3961 30.4408 54.6157 30.916 53.7411C31.3321 52.9755 32.0307 52.1417 33.0525 50.922C33.2248 50.7165 33.4062 50.5 33.5969 50.271C34.6355 49.2999 35.7775 48.4458 37.0024 47.7239C38.5 46.8758 40.1131 46.1775 43.5877 46.0244Z" fill="#514C4E"/>
<path fill-rule="evenodd" clip-rule="evenodd" d="M33.6084 62.0852C33.6964 62.0544 33.7928 62.1008 33.8236 62.1889L34.3868 63.7995C34.4158 63.8047 34.4527 63.81 34.4969 63.814C34.626 63.8257 34.8174 63.8258 35.0563 63.7761C35.5319 63.6771 36.2094 63.3779 36.9658 62.5522C37.0288 62.4834 37.1357 62.4787 37.2045 62.5417C37.2733 62.6047 37.278 62.7116 37.215 62.7804C36.4156 63.653 35.6769 63.9921 35.1252 64.1069C34.8505 64.1641 34.6254 64.1649 34.4665 64.1506C34.3871 64.1434 34.3243 64.1325 34.2801 64.1229C34.258 64.1181 34.2405 64.1137 34.2279 64.1102C34.2216 64.1085 34.2165 64.107 34.2127 64.1058L34.2079 64.1043L34.2062 64.1038L34.2055 64.1036C34.2054 64.1035 34.2049 64.1034 34.2579 63.943L34.2049 64.1034L34.1259 64.0773L33.5046 62.3005C33.4738 62.2124 33.5203 62.116 33.6084 62.0852Z" fill="#514C4E"/>
<path fill-rule="evenodd" clip-rule="evenodd" d="M40.0817 67.8892C40.1714 67.9149 40.2232 68.0085 40.1974 68.0982C39.9015 69.1278 39.3817 69.6927 38.9235 69.9987C38.6959 70.1507 38.4864 70.2369 38.3321 70.2853C38.2549 70.3095 38.1913 70.3243 38.146 70.3332C38.1233 70.3376 38.1052 70.3406 38.0921 70.3425C38.0856 70.3434 38.0803 70.3441 38.0764 70.3446L38.0715 70.3452L38.0699 70.3453L38.0692 70.3454L38.0689 70.3454C38.0688 70.3455 38.0687 70.3455 38.0518 70.1774" fill="#514C4E"/>
<path fill-rule="evenodd" clip-rule="evenodd" d="M32.8323 60.8783C32.8029 60.9667 32.7075 61.0147 32.619 60.9855C32.5303 60.9562 32.4822 60.8607 32.5115 60.772L32.6719 60.825C32.5115 60.772 32.5115 60.7719 32.5116 60.7717L32.5117 60.7714L32.512 60.7707L32.5126 60.7688L32.5144 60.7638C32.5158 60.7598 32.5177 60.7547 32.5202 60.7484C32.5252 60.7358 32.5324 60.7188 32.5423 60.698C32.562 60.6563 32.5923 60.5993 32.6368 60.5322C32.7258 60.3978 32.8711 60.2238 33.0995 60.0517C33.5582 59.7063 34.3381 59.3794 35.641 59.3794C35.7343 59.3794 35.8099 59.455 35.8099 59.5484C35.8099 59.6417 35.7343 59.7173 35.641 59.7173C34.3964 59.7173 33.6918 60.0287 33.3028 60.3217C33.1074 60.4688 32.988 60.6139 32.9184 60.7189C32.8836 60.7715 32.8611 60.8142 32.8478 60.8424C32.8411 60.8564 32.8368 60.8669 32.8343 60.873C32.8331 60.8761 32.8324 60.8781 32.8321 60.8789L32.8321 60.8789L32.8322 60.8785L32.8323 60.8783ZM32.8321 60.8789L32.8319 60.8794L32.8319 60.8794C32.8319 60.8794 32.832 60.8793 32.8321 60.8789Z" fill="#514C4E"/>
<path d="M45.7302 43.4922C43.8792 43.226 42.0125 43.0832 40.1425 43.0646C40.1425 43.0646 34.5489 39.8403 29.175 43.2784C23.801 46.7165 26.3841 52.7377 26.3841 54.24C26.3841 55.7423 24.6621 55.7483 25.7368 57.6841C26.8116 59.6199 30.4457 58.551 30.4457 58.551C30.4841 57.8209 30.677 57.1072 31.0118 56.4572C31.3465 55.8072 31.8154 55.2357 32.3874 54.7804C34.3232 53.278 35.8671 52.9514 36.5084 53.3849C36.5084 53.3849 36.0809 56.6093 36.7222 57.8978C36.7222 57.8978 38.8718 58.9726 39.519 58.9726C40.1663 58.9726 39.0974 59.8811 41.241 60.6887C41.6316 60.829 42.0493 60.8768 42.4615 60.8283C42.8736 60.7799 43.2689 60.6366 43.6163 60.4096C43.931 59.1033 44.6198 57.1378 45.9024 57.595C47.7848 58.266 49.5009 62.8977 46.9534 64.4772C50.0175 65.0353 53.7287 59.6139 53.9484 54.6735C54.1681 49.733 48.913 44.0503 45.7302 43.4922Z" fill="#514C4E"/>
<path fill-rule="evenodd" clip-rule="evenodd" d="M36.6431 51.3395L36.6434 51.3393L36.646 51.338C36.6484 51.3367 36.6524 51.3348 36.6578 51.3322C36.6686 51.327 36.6852 51.3193 36.7073 51.3101C36.7516 51.2915 36.8177 51.2666 36.9034 51.242C37.0748 51.1928 37.3242 51.1449 37.6328 51.1521C38.2479 51.1664 39.1071 51.3996 40.0605 52.2946C42.0066 54.1212 45.8004 56.5711 50.8287 55.2242C50.8737 55.2121 50.9005 55.1658 50.8884 55.1208C50.8764 55.0757 50.83 55.0489 50.785 55.061C45.8373 56.3863 42.1018 53.9788 40.1762 52.1714C39.1938 51.2493 38.2953 50.9985 37.6368 50.9832C37.3085 50.9755 37.042 51.0264 36.8568 51.0796C36.7642 51.1062 36.6918 51.1334 36.6421 51.1542C36.6172 51.1646 36.598 51.1735 36.5847 51.1798C36.5781 51.183 36.5729 51.1856 36.5693 51.1874L36.565 51.1896L36.5637 51.1903L36.5633 51.1905L36.5632 51.1906C36.5631 51.1906 36.563 51.1907 36.603 51.2651L36.563 51.1907C36.522 51.2128 36.5065 51.264 36.5286 51.3051C36.5507 51.3462 36.6019 51.3616 36.643 51.3395L36.6431 51.3395ZM36.6429 51.3396C36.6429 51.3396 36.6429 51.3396 36.6429 51.3396L36.6429 51.3396Z" fill="white"/>
<path fill-rule="evenodd" clip-rule="evenodd" d="M36.4544 49.8556L36.4549 49.8548L36.457 49.8516C36.4589 49.8487 36.4619 49.8442 36.4659 49.8383C36.4739 49.8265 36.486 49.8089 36.5022 49.7863C36.5345 49.7412 36.5829 49.6763 36.6468 49.5982C36.7746 49.442 36.9637 49.2336 37.2085 49.0253C37.6986 48.6081 38.4057 48.1963 39.2869 48.1963C39.7259 48.1963 40.3201 48.351 41.0267 48.5899C41.5132 48.7543 42.0467 48.9563 42.6128 49.1707C42.8671 49.267 43.1279 49.3657 43.3941 49.4647C45.1053 50.1012 47.0278 50.7437 48.7403 50.7437C48.7869 50.7437 48.8248 50.7059 48.8248 50.6592C48.8248 50.6126 48.7869 50.5748 48.7403 50.5748C47.0622 50.5748 45.1665 49.9436 43.453 49.3064C43.1893 49.2083 42.9298 49.11 42.6761 49.014C42.1084 48.799 41.5702 48.5953 41.0808 48.4298C40.3744 48.191 39.7565 48.0273 39.2869 48.0273C38.3511 48.0273 37.6064 48.4647 37.0989 48.8966C36.8448 49.1129 36.6487 49.3291 36.516 49.4913C36.4496 49.5724 36.399 49.6402 36.3648 49.6879C36.3477 49.7118 36.3347 49.7307 36.3259 49.7437C36.3215 49.7503 36.3181 49.7553 36.3158 49.7588L36.3131 49.7629L36.3124 49.764L36.3122 49.7644C36.3122 49.7644 36.3121 49.7646 36.3832 49.8101L36.3122 49.7644C36.287 49.8037 36.2984 49.8561 36.3377 49.8813C36.377 49.9064 36.4292 49.8949 36.4544 49.8556Z" fill="white"/>
<path fill-rule="evenodd" clip-rule="evenodd" d="M35.2142 53.0289C35.2143 53.0289 35.2143 53.029 35.1487 53.0822L35.2143 53.029C35.2437 53.0652 35.2381 53.1184 35.2019 53.1478C35.1656 53.1772 35.1125 53.1716 35.0831 53.1354C35.0831 53.1354 35.0831 53.1354 35.0831 53.1354L35.0831 53.1354L35.0829 53.1351L35.0819 53.134L35.0778 53.1291C35.0741 53.1246 35.0685 53.1179 35.061 53.1092C35.046 53.0917 35.0235 53.0661 34.9941 53.0341C34.9353 52.9701 34.8489 52.8806 34.7392 52.7794C34.5193 52.5766 34.2078 52.3288 33.8387 52.1446C33.4697 51.9604 33.0472 51.8419 32.6028 51.891C32.16 51.94 31.6861 52.1565 31.214 52.659C30.2636 53.6706 30.094 54.6485 30.1573 55.3706C30.1891 55.733 30.2798 56.0328 30.3625 56.2418C30.4038 56.3462 30.443 56.4276 30.4717 56.4826C30.486 56.5101 30.4976 56.531 30.5056 56.5447C30.5096 56.5516 30.5126 56.5567 30.5146 56.56L30.5167 56.5635L30.5172 56.5643L30.5172 56.5643" fill="white"/>
<path fill-rule="evenodd" clip-rule="evenodd" d="M31.3263 47.5229C30.119 48.1484 29.17 49.3683 29.0513 50.6672C28.9096 52.2722 28.1658 53.7642 26.9692 54.8433C26.9345 54.8746 26.8811 54.8718 26.8499 54.8372C26.8186 54.8025 26.8214 54.7491 26.856 54.7179C28.021 53.6673 28.7451 52.2148 28.883 50.6522L28.883 50.6519C29.0079 49.2847 30.0006 48.0195 31.2486 47.3729C32.4997 46.7246 34.0254 46.6899 35.2069 47.8134C35.2407 47.8456 35.242 47.8991 35.2099 47.9329C35.1777 47.9667 35.1243 47.968 35.0904 47.9359C33.9739 46.8742 32.5306 46.8989 31.3263 47.5229Z" fill="white"/>
<path fill-rule="evenodd" clip-rule="evenodd" d="M30.6646 45.0837L30.6059 45.0229C30.5723 45.0553 30.5714 45.1088 30.6038 45.1424C30.6362 45.1759 30.6897 45.1769 30.7232 45.1445M30.7232 45.1445L30.7237 45.1441L30.7254 45.1424L30.7327 45.1355C30.7394 45.1293 30.7494 45.1201 30.7627 45.1081C30.7893 45.0842 30.829 45.0493 30.8808 45.0064C30.9844 44.9206 31.136 44.8026 31.3275 44.6747C31.711 44.4186 32.2516 44.1246 32.8834 43.9684C33.5143 43.8125 34.2349 43.7944 34.9826 44.0876C35.7304 44.381 36.5132 44.9889 37.263 46.0989C37.2891 46.1375 37.3416 46.1477 37.3803 46.1216C37.4189 46.0955 37.4291 46.043 37.403 46.0043C36.6385 44.8726 35.8307 44.2388 35.0443 43.9303C34.2577 43.6218 33.5005 43.6419 32.8428 43.8044C32.1861 43.9667 31.6274 44.2713 31.2337 44.5342C31.0366 44.6658 30.8803 44.7874 30.773 44.8763C30.7193 44.9208 30.6779 44.9571 30.6497 44.9825C30.6356 44.9952 30.6248 45.0051 30.6174 45.012L30.609 45.0199L30.6068 45.022L30.6062 45.0226C30.6061 45.0227 30.6059 45.0229 30.6646 45.0837" fill="white"/>
<path d="M60.2899 217.922C60.2899 217.922 62.5285 221.402 62.2792 223.64L62.0357 225.879C62.0357 225.879 53.8234 228.129 52.0835 228.129C50.3437 228.129 41.1338 227.256 41.1338 227.256L40.736 225.677C40.7081 225.56 40.7212 225.438 40.7731 225.329C40.825 225.221 40.9125 225.134 41.021 225.083L49.2333 221.253L51.8223 218.421L60.2899 217.922Z" fill="white"/>
<path fill-rule="evenodd" clip-rule="evenodd" d="M60.4329 217.83L60.2903 217.922C60.4329 217.83 60.4329 217.83 60.4329 217.83L60.4335 217.831L60.4348 217.833L60.4398 217.841C60.4442 217.848 60.4507 217.858 60.459 217.871C60.4757 217.898 60.5 217.937 60.5308 217.987C60.5923 218.088 60.6796 218.234 60.7835 218.416C60.9912 218.781 61.2657 219.29 61.5325 219.871C62.0615 221.021 62.5783 222.489 62.4481 223.658L62.2795 223.64L62.4481 223.659M62.0361 225.879C61.9912 225.715 61.9912 225.715 61.9911 225.715L61.8989 225.74C61.8928 225.742 61.8865 225.744 61.8799 225.745L61.8674 225.86L62.0361 225.879ZM41.0935 225.237C41.0936 225.236 41.0937 225.236 41.0938 225.236L41.0214 225.083L41.093 225.237L41.0935 225.237ZM51.9014 218.586L51.8326 218.59L51.8226 218.421L51.9478 218.535L51.9014 218.586ZM40.9011 225.637C40.9012 225.637 40.9012 225.637 40.9013 225.637L40.7363 225.677L40.9008 225.635L40.9011 225.637ZM41.2694 227.099L41.2987 227.215L41.1342 227.256C41.1502 227.087 41.1502 227.087 41.1503 227.087L41.2539 227.097C41.2589 227.098 41.2641 227.098 41.2694 227.099ZM49.1313 221.114L51.7439 218.255L60.3793 217.747L60.4329 217.83" fill="#514C4E"/>
<path d="M53.3304 226.378C55.5571 226.55 59.785 225.19 62.2374 224.323L62.0652 225.879C62.0652 225.879 53.8232 228.13 52.0834 228.13C50.3436 228.13 41.1337 227.257 41.1337 227.257L40.8486 226.128C42.3213 226.134 50.3851 226.152 53.3304 226.378Z" fill="#CB78A0"/>
<path fill-rule="evenodd" clip-rule="evenodd" d="M62.436 224.073L62.2214 226.012L62.1102 226.043L62.0655 225.879C62.1102 226.043 62.1102 226.043 62.1102 226.043L62.0169 226.068C61.956 226.085 61.8665 226.109 61.752 226.14C61.523 226.201 61.194 226.289 60.7938 226.395C59.9933 226.606 58.9078 226.887 57.7677 227.169C56.6278 227.451 55.4321 227.732 54.4118 227.944C53.3981 228.154 52.5392 228.299 52.0837 228.299C51.2044 228.299 48.4572 228.08 45.9417 227.862C44.6813 227.753 43.4754 227.644 42.5846 227.562C42.1392 227.521 41.7726 227.487 41.5173 227.463C41.3896 227.451 41.2898 227.442 41.2219 227.435L41.1183 227.426C41.1183 227.426 41.1179 227.426 41.1339 227.257L41.1179 227.426L40.9988 227.414L40.6309 225.958L40.8496 225.959C40.9238 225.959 41.0149 225.959 41.1214 225.96C43.1211 225.967 50.5397 225.994 53.3436 226.209C54.4261 226.292 56.0155 226.003 57.6569 225.576C59.292 225.151 60.9569 224.596 62.1812 224.163L62.436 224.073ZM41.2691 227.099C41.3362 227.105 41.4306 227.114 41.5488 227.125C41.804 227.149 42.1705 227.183 42.6157 227.224C43.5061 227.306 44.7114 227.415 45.971 227.524C48.4954 227.743 51.2231 227.96 52.0837 227.96C52.4981 227.96 53.3218 227.824 54.3429 227.612C55.3572 227.401 56.5482 227.121 57.6863 226.84C58.8242 226.559 59.9079 226.278 60.7072 226.067C61.1069 225.961 61.4353 225.873 61.6639 225.812C61.767 225.784 61.8498 225.762 61.9096 225.746L62.0394 224.573C60.8399 224.992 59.2795 225.505 57.7422 225.904C56.0999 226.331 54.4619 226.635 53.3176 226.547C50.5276 226.333 43.1204 226.306 41.1186 226.299C41.101 226.299 41.0837 226.299 41.0669 226.299L41.2691 227.099Z" fill="#514C4E"/>
<path d="M49.2451 221.253L37.2918 226.455C37.2918 226.455 36.2705 229.014 37.2918 229.525C38.3132 230.036 60.5808 229.525 60.5808 229.525C60.5808 229.525 62.1187 225.481 59.6901 222.768C57.2614 220.054 49.2451 221.253 49.2451 221.253Z" fill="white"/>
<path fill-rule="evenodd" clip-rule="evenodd" d="M57.0737 221.221C58.1805 221.494 59.1758 221.939 59.8162 222.654C61.0727 224.058 61.2975 225.8 61.2152 227.174C61.174 227.862 61.0555 228.463 60.9473 228.892C60.8932 229.107 60.8416 229.279 60.8033 229.398C60.7841 229.457 60.7683 229.503 60.7572 229.535C60.7516 229.551 60.7472 229.563 60.7441 229.571L60.7405 229.581L60.7395 229.584L60.7392 229.585C60.7392 229.585 60.739 229.585 60.5805 229.525C60.5844 229.694 60.5843 229.694 60.5841 229.694L60.3339 229.7C60.1705 229.704 59.9308 229.709 59.6253 229.715C59.0143 229.728 58.1404 229.746 57.0884 229.766C54.9846 229.806 52.1688 229.854 49.3209 229.886C46.4733 229.918 43.5926 229.934 41.3595 229.91C40.2432 229.898 39.287 229.876 38.5771 229.841C38.2224 229.823 37.9269 229.802 37.7027 229.777C37.5907 229.765 37.4942 229.751 37.4158 229.736C37.3416 229.722 37.2696 229.703 37.2157 229.676C36.8908 229.514 36.745 229.194 36.693 228.855C36.6409 228.516 36.6764 228.127 36.7416 227.768C36.8072 227.406 36.9053 227.063 36.9864 226.811C37.0271 226.684 37.0637 226.58 37.0903 226.508C37.1036 226.471 37.1144 226.443 37.1219 226.423C37.1257 226.413 37.1286 226.406 37.1307 226.4L37.133 226.394L37.1337 226.393L37.1339 226.392C37.1339 226.392 37.134 226.392 37.2915 226.455L37.1339 226.392L37.1598 226.327L49.1976 221.089L49.2197 221.085L49.2448 221.253C49.2197 221.085 49.2196 221.085 49.2197 221.085L49.2214 221.085L49.226 221.084L49.2438 221.082C49.2594 221.08 49.2824 221.076 49.3124 221.072C49.3724 221.064 49.4605 221.052 49.5733 221.038C49.7989 221.011 50.1234 220.974 50.5203 220.939C51.3137 220.869 52.3979 220.803 53.5594 220.823C54.72 220.843 55.9636 220.948 57.0737 221.221ZM49.2917 221.418L37.4245 226.582C37.4199 226.594 37.4147 226.608 37.409 226.624C37.3837 226.693 37.3485 226.793 37.3094 226.915C37.2309 227.158 37.1375 227.487 37.0754 227.829C37.0129 228.173 36.9846 228.519 37.0283 228.804C37.072 229.088 37.1816 229.28 37.3674 229.373C37.3773 229.378 37.4106 229.39 37.4805 229.403C37.5464 229.416 37.6329 229.428 37.7401 229.44C37.9543 229.464 38.2419 229.485 38.5938 229.502C39.2972 229.537 40.2482 229.559 41.3631 229.571C43.5924 229.594 46.4702 229.579 49.3171 229.547C52.1638 229.515 54.9787 229.467 57.082 229.427C58.1336 229.407 59.0073 229.389 59.6181 229.376C59.9235 229.37 60.1631 229.364 60.3264 229.361L60.4593 229.358C60.4657 229.339 60.4727 229.317 60.4804 229.294C60.5167 229.181 60.5662 229.016 60.6184 228.809C60.7227 228.395 60.8369 227.816 60.8766 227.153C60.9561 225.827 60.7356 224.19 59.5634 222.88C58.9894 222.239 58.072 221.816 56.9926 221.551C55.9166 221.286 54.7008 221.182 53.5536 221.162C52.4075 221.143 51.3358 221.207 50.5503 221.277C50.1577 221.312 49.837 221.348 49.6147 221.375C49.5035 221.389 49.417 221.4 49.3584 221.408C49.3291 221.412 49.3066 221.416 49.2917 221.418ZM60.5805 229.525L60.5841 229.694L60.6985 229.692L60.739 229.585L60.5805 229.525Z" fill="#514C4E"/>
<path d="M60.5807 229.525C60.5807 229.525 38.3131 230.035 37.2918 229.525C36.7989 229.275 36.7811 228.557 36.8939 227.874H60.9727C60.894 228.435 60.7628 228.988 60.5807 229.525Z" fill="#CB78A0"/>
<path fill-rule="evenodd" clip-rule="evenodd" d="M36.7497 227.705H61.1674L61.1403 227.898C61.0602 228.47 60.9265 229.033 60.7411 229.579L60.703 229.692L60.5843 229.695L60.5804 229.525C60.5843 229.695 60.5845 229.695 60.5843 229.695L60.3339 229.7C60.1705 229.704 59.9307 229.709 59.6252 229.716C59.0142 229.728 58.1403 229.746 57.0884 229.766C54.9846 229.806 52.1687 229.854 49.3209 229.886C46.4732 229.918 43.5925 229.934 41.3594 229.91C40.2431 229.898 39.2869 229.876 38.577 229.841C38.2223 229.824 37.9268 229.803 37.7026 229.778C37.5906 229.765 37.4941 229.752 37.4158 229.736C37.3416 229.722 37.2695 229.704 37.2156 229.677L37.2149 229.676C36.9025 229.518 36.7553 229.216 36.6983 228.891C36.6416 228.568 36.6686 228.196 36.7263 227.847L36.7497 227.705ZM60.4571 229.358C60.5963 228.929 60.7026 228.489 60.7751 228.044H37.0396C37.0014 228.328 36.9921 228.602 37.0325 228.833C37.0794 229.1 37.1876 229.282 37.3681 229.374L37.2915 229.525L37.3673 229.373C37.3773 229.378 37.4105 229.39 37.4805 229.403C37.5463 229.416 37.6328 229.429 37.74 229.441C37.9542 229.464 38.2418 229.485 38.5938 229.502C39.2971 229.537 40.2482 229.559 41.3631 229.571C43.5924 229.595 46.4701 229.579 49.3171 229.547C52.1637 229.515 54.9786 229.467 57.0819 229.427C58.1336 229.407 59.0073 229.389 59.618 229.376C59.9234 229.37 60.1631 229.365 60.3264 229.361L60.4571 229.358Z" fill="#514C4E"/>
<path d="M43.592 130.871C43.592 130.871 40.4686 144.712 39.2869 153.37C38.1052 162.028 37.4105 179.373 37.6599 181.362C37.9093 183.351 50.3435 216.681 50.3435 216.681L51.5846 219.65L60.2897 217.91C60.2897 217.91 56.3113 205.227 54.8208 198.261C53.3304 191.296 50.0704 179.854 50.0704 177.864C50.0704 175.875 57.7898 137.884 58.3421 135.39C58.8943 132.896 61.4002 129.066 61.4002 129.066L44.7321 128.727L43.592 130.871Z" fill="#CB78A0"/>
<path fill-rule="evenodd" clip-rule="evenodd" d="M44.632 128.555L61.7104 128.902L61.5428 129.158L61.5424 129.159L61.5411 129.161L61.5359 129.169L61.5151 129.201C61.4968 129.229 61.4699 129.271 61.4353 129.326C61.3661 129.435 61.2666 129.593 61.1454 129.791C60.9028 130.188 60.5738 130.742 60.2276 131.374C59.5326 132.642 58.7788 134.205 58.5084 135.426C58.2327 136.671 56.1652 146.79 54.1662 156.849C53.1668 161.878 52.1847 166.891 51.4525 170.77C51.0864 172.71 50.7829 174.366 50.571 175.599C50.465 176.215 50.3821 176.725 50.3257 177.111C50.2686 177.502 50.2407 177.754 50.2407 177.864C50.2407 178.096 50.2891 178.48 50.3811 178.996C50.4725 179.51 50.605 180.144 50.7692 180.874C51.0976 182.333 51.5512 184.165 52.0519 186.155C52.2063 186.769 52.3652 187.398 52.5263 188.035C53.4089 191.528 54.3565 195.277 54.9874 198.226C55.7312 201.702 57.0968 206.609 58.2777 210.65C58.8679 212.67 59.4116 214.473 59.8077 215.77C60.0058 216.419 60.167 216.941 60.2786 217.301C60.3344 217.482 60.3778 217.621 60.4073 217.716L60.4521 217.859L60.4522 217.859C60.4523 217.859 60.4523 217.859 60.2904 217.91L60.4522 217.859L60.5088 218.04L51.4823 219.844L50.1864 216.743L50.1853 216.74L50.3441 216.681C50.1853 216.74 50.1852 216.74 50.1851 216.74L50.0456 216.365C49.9544 216.121 49.8207 215.762 49.6505 215.304C49.31 214.389 48.8232 213.079 48.2384 211.501C47.0688 208.345 45.5066 204.116 43.9366 199.826C42.3667 195.535 40.7888 191.181 39.5876 187.776C38.9871 186.073 38.4805 184.607 38.1161 183.504C37.934 182.952 37.787 182.49 37.6815 182.134C37.5775 181.784 37.5099 181.523 37.4923 181.383C37.428 180.87 37.4254 179.398 37.4738 177.362C37.5224 175.319 37.6229 172.692 37.768 169.858C38.0583 164.19 38.5277 157.683 39.1195 153.347C39.7112 149.012 40.7884 143.383 41.7171 138.84C42.1815 136.567 42.609 134.566 42.9204 133.133C43.0761 132.416 43.2028 131.841 43.2906 131.445C43.3344 131.248 43.3686 131.095 43.3918 130.991L43.4272 130.833C43.4272 130.833 43.4272 130.833 43.5927 130.871L43.4272 130.833L43.4322 130.811L44.632 128.555ZM43.7532 130.93L43.7228 131.065C43.6997 131.169 43.6656 131.321 43.6218 131.519C43.5341 131.914 43.4075 132.488 43.2519 133.205C42.9408 134.637 42.5136 136.637 42.0495 138.907C41.121 143.45 40.0457 149.07 39.4557 153.393C38.8658 157.714 38.397 164.209 38.1068 169.875C37.9618 172.707 37.8615 175.331 37.813 177.37C37.7643 179.417 37.7685 180.859 37.8289 181.341C37.8424 181.449 37.9012 181.682 38.0068 182.038C38.1108 182.389 38.2566 182.847 38.4383 183.397C38.8016 184.497 39.3073 185.961 39.9076 187.663C41.108 191.067 42.6854 195.419 44.2552 199.709C45.825 203.999 47.387 208.228 48.5565 211.383C49.1413 212.961 49.628 214.271 49.9684 215.186C50.1387 215.643 50.2723 216.002 50.3635 216.247L50.4941 216.598L50.5007 216.616L50.503 216.621L51.6882 219.457L60.0723 217.781C60.0434 217.688 60.0038 217.561 59.9545 217.402C59.8428 217.041 59.6815 216.518 59.4833 215.869C59.0868 214.571 58.5428 212.767 57.9521 210.745C56.7711 206.704 55.4023 201.786 54.6556 198.297C54.0262 195.355 53.0805 191.613 52.1978 188.12C52.0366 187.482 51.8775 186.853 51.7229 186.238C51.2222 184.248 50.7677 182.412 50.4382 180.948C50.2735 180.216 50.1398 179.576 50.0471 179.056C49.955 178.539 49.9014 178.129 49.9014 177.864C49.9014 177.725 49.9338 177.447 49.9901 177.062C50.047 176.672 50.1305 176.159 50.2367 175.541C50.4491 174.306 50.753 172.648 51.1192 170.707C51.8517 166.826 52.834 161.812 53.8335 156.783C55.8322 146.725 57.9005 136.602 58.1771 135.353C58.4589 134.08 59.2342 132.481 59.9301 131.211C60.2795 130.573 60.6114 130.014 60.856 129.614C60.9499 129.461 61.0309 129.331 61.0952 129.229L44.8336 128.899L43.7532 130.93Z" fill="#514C4E"/>
<path d="M43.5921 130.87C43.5921 130.87 41.7632 143.513 42.5173 152.301C43.2714 161.089 44.8925 179.8 44.8925 182.585C44.8925 185.37 49.3876 202.002 49.6429 207.228C50.0408 214.775 49.4826 218.51 49.4826 218.51L49.2154 221.247C49.2154 221.247 54.4587 221.996 55.6047 222.322C56.9284 222.663 58.2944 222.811 59.6604 222.762C59.6604 222.762 61.5665 214.371 61.5665 207.222C61.5665 200.072 59.9811 185.358 59.1913 179.396C58.4015 173.434 60.8896 150.436 62.3028 146.143C63.7161 141.85 66.8039 132.759 64.7255 128.115C62.6472 123.472 43.5921 130.87 43.5921 130.87Z" fill="#CB78A0"/>
<path fill-rule="evenodd" clip-rule="evenodd" d="M63.2745 126.739C64.0223 126.991 64.5947 127.408 64.8801 128.046C65.4136 129.238 65.6113 130.704 65.5918 132.289C65.5724 133.876 65.3351 135.593 64.9894 137.294C64.3322 140.528 63.2794 143.722 62.5705 145.871C62.534 145.982 62.4983 146.091 62.4636 146.196C62.1156 147.253 61.6969 149.481 61.2769 152.336C60.8577 155.186 60.4392 158.647 60.0894 162.16C59.7397 165.674 59.4588 169.239 59.3147 172.297C59.1704 175.359 59.1639 177.9 59.3592 179.373C60.1489 185.335 61.7358 200.06 61.7358 207.221C61.7358 210.809 61.2578 214.704 60.7807 217.699C60.542 219.197 60.3033 220.472 60.1243 221.372C60.0348 221.822 59.9601 222.178 59.9079 222.422C59.8817 222.544 59.8612 222.638 59.8471 222.702C59.8401 222.734 59.8347 222.758 59.8311 222.774L59.8269 222.792L59.8256 222.798C59.8256 222.798 59.8255 222.799 59.6601 222.761L59.8255 222.799L59.7966 222.926L59.6663 222.931C58.2839 222.981 56.9016 222.831 55.5621 222.486L55.5579 222.485C54.9975 222.325 53.4131 222.058 51.9537 221.83C51.2273 221.716 50.5366 221.612 50.0275 221.537C49.7729 221.499 49.5638 221.469 49.4183 221.448C49.3456 221.437 49.2888 221.429 49.2501 221.423L49.1949 221.416L49.1921 221.415L49.1914 221.415C49.1913 221.415 49.1911 221.415 49.2151 221.247L49.1914 221.415L49.0305 221.392L49.3139 218.489L49.3145 218.485L49.3146 218.484L49.3149 218.482L49.316 218.475L49.3182 218.459L49.3204 218.443C49.3243 218.414 49.33 218.371 49.3372 218.314C49.3515 218.198 49.3716 218.024 49.3945 217.791C49.4403 217.326 49.4975 216.626 49.5422 215.691C49.6318 213.819 49.6719 211.004 49.4732 207.236L49.4732 207.236C49.3464 204.641 48.1636 199.195 47.0061 194.028C46.8956 193.534 46.7853 193.043 46.6763 192.558C46.2155 190.507 45.7768 188.555 45.4325 186.91C45.2197 185.893 45.0425 184.992 44.9186 184.257C44.7952 183.526 44.7226 182.948 44.7226 182.584C44.7226 181.201 44.3183 175.837 43.8183 169.708C43.3733 164.252 42.8535 158.2 42.4787 153.838C42.4329 153.303 42.3891 152.794 42.348 152.315C41.9697 147.906 42.2394 142.537 42.6026 138.275C42.7843 136.143 42.9895 134.286 43.1494 132.962C43.2293 132.3 43.2979 131.772 43.3465 131.408C43.3708 131.226 43.3902 131.086 43.4034 130.991C43.41 130.943 43.4152 130.907 43.4186 130.883L43.4239 130.846C43.4239 130.846 43.4239 130.846 43.5918 130.87C43.5304 130.712 43.5305 130.712 43.5306 130.712L43.5445 130.707L43.5857 130.691C43.6221 130.677 43.6759 130.656 43.7462 130.63C43.8867 130.576 44.0929 130.499 44.356 130.402C44.8822 130.208 45.6359 129.937 46.5468 129.626C48.3682 129.004 50.8198 128.223 53.3376 127.587C55.8531 126.951 58.4448 126.458 60.543 126.417C61.5917 126.396 62.5284 126.488 63.2745 126.739ZM43.5918 130.87L43.5306 130.712L43.4381 130.748L43.4239 130.846L43.5918 130.87ZM43.7457 130.993C43.7438 131.006 43.7417 131.021 43.7394 131.038C43.7263 131.132 43.707 131.272 43.6828 131.453C43.6343 131.815 43.5659 132.343 43.4862 133.003C43.3267 134.324 43.1219 136.177 42.9406 138.304C42.5779 142.561 42.3102 147.907 42.686 152.286C42.7271 152.765 42.7709 153.274 42.8168 153.809C43.1915 158.171 43.7114 164.223 44.1565 169.68C44.6556 175.799 45.0618 181.183 45.0618 182.584C45.0618 182.917 45.1297 183.469 45.2531 184.2C45.376 184.929 45.5521 185.825 45.7646 186.84C46.1083 188.482 46.5463 190.432 47.007 192.482C47.1161 192.968 47.2265 193.459 47.3372 193.954C48.4911 199.105 49.6834 204.587 49.812 207.219C50.0112 210.998 49.9712 213.824 49.8811 215.707C49.8361 216.648 49.7785 217.354 49.7321 217.825C49.7089 218.06 49.6885 218.237 49.6739 218.355C49.6665 218.414 49.6606 218.459 49.6565 218.489C49.6545 218.504 49.6529 218.515 49.6518 218.523L49.6506 218.531L49.3997 221.102C49.4203 221.105 49.4427 221.108 49.467 221.112C49.6127 221.133 49.8221 221.164 50.0771 221.201C50.5868 221.277 51.2786 221.38 52.0063 221.494C53.4532 221.721 55.0612 221.991 55.6487 222.158C56.9137 222.484 58.2177 222.631 59.5231 222.596C59.5365 222.535 59.5543 222.453 59.5761 222.351C59.6281 222.109 59.7024 221.754 59.7916 221.305C59.9699 220.409 60.2078 219.139 60.4456 217.646C60.9216 214.658 61.3966 210.783 61.3966 207.221C61.3966 200.084 59.8126 185.38 59.0228 179.418C58.8232 177.911 58.8316 175.342 58.9758 172.281C59.1203 169.215 59.4017 165.644 59.7518 162.127C60.102 158.609 60.5211 155.143 60.9412 152.287C61.3606 149.436 61.7828 147.179 62.1414 146.09C62.1758 145.985 62.2111 145.878 62.2474 145.768C62.9567 143.617 64.0039 140.441 64.657 137.226C65.0002 135.538 65.2335 133.843 65.2526 132.285C65.2717 130.725 65.076 129.314 64.5704 128.184C64.3362 127.661 63.8584 127.294 63.1664 127.061C62.4726 126.828 61.5797 126.736 60.5497 126.756C58.4906 126.796 55.9288 127.282 53.4207 127.916C50.915 128.549 48.4728 129.327 46.6564 129.947C45.7484 130.257 44.9972 130.528 44.4732 130.72C44.2112 130.817 44.006 130.894 43.8664 130.947C43.8182 130.965 43.7779 130.98 43.7457 130.993Z" fill="#514C4E"/>
<path d="M67.0351 125.788L66.8451 131.441C66.8451 131.441 63.4604 132.112 58.9 132.901C55.1353 133.555 45.682 132.729 42.4992 132.42C42.2091 132.395 41.941 132.255 41.753 132.033C41.5651 131.811 41.4726 131.523 41.4957 131.233L41.8044 126.126L67.0351 125.788Z" fill="#514C4E"/>
<path d="M53.806 69.4355C53.806 69.4355 48.4617 75.2133 46.4487 78.8058C44.4357 82.3983 43.64 87.9028 42.8859 92.2376C42.1318 96.5724 44.1745 106.75 43.5985 111.423L41.7755 126.144C41.7755 126.144 41.3836 127.141 42.6959 128.234C44.0082 129.327 50.4153 129.724 56.2049 130.015C58.3189 130.122 64.631 128.762 65.6642 128.697C66.9112 128.62 66.9528 127.034 67.0062 125.787C67.2556 119.927 68.3126 104.304 69.0073 97.4987C70.4384 83.6215 62.6061 70.2253 53.806 69.4355Z" fill="white"/>
<path fill-rule="evenodd" clip-rule="evenodd" d="M53.738 69.2588L53.8211 69.2662C58.3014 69.6683 62.4995 73.271 65.3916 78.4766C68.2873 83.6887 69.8952 90.5417 69.1761 97.5156C68.4817 104.317 67.425 119.936 67.1757 125.794C67.1745 125.822 67.1733 125.85 67.1721 125.879C67.1468 126.476 67.1175 127.17 66.9449 127.731C66.8538 128.027 66.7189 128.3 66.512 128.505C66.3016 128.714 66.0259 128.844 65.6747 128.866C65.6746 128.866 65.6748 128.866 65.6747 128.866C65.4281 128.882 64.8517 128.977 64.0769 129.112C63.8277 129.156 63.5591 129.204 63.2762 129.254C62.6865 129.359 62.0347 129.475 61.3682 129.588C59.4038 129.921 57.2762 130.239 56.1964 130.184C56.1964 130.184 56.1964 130.184 56.1964 130.184M41.9334 126.205L41.9322 126.209C41.9306 126.214 41.9279 126.222 41.9247 126.234C41.9182 126.257 41.9096 126.293 41.9026 126.341C41.8886 126.436 41.8811 126.577 41.9108 126.75C41.9694 127.093 42.1763 127.58 42.8044 128.103C42.9471 128.222 43.1702 128.34 43.4748 128.453C43.7772 128.565 44.1497 128.67 44.5831 128.766C45.4499 128.96 46.5477 129.12 47.7899 129.256C50.2738 129.528 53.3183 129.7 56.2134 129.846C57.2476 129.898 59.333 129.589 61.3114 129.253C61.9766 129.14 62.6258 129.025 63.2148 128.92C63.4982 128.87 63.7676 128.822 64.0183 128.778C64.7834 128.644 65.3834 128.545 65.6535 128.527C65.9258 128.511 66.1231 128.413 66.2729 128.265C66.4262 128.112 66.5389 127.897 66.6207 127.631C66.78 127.113 66.8078 126.459 66.8339 125.846L66.8367 125.78C67.0862 119.916 68.1434 104.29 68.8386 97.4811C69.5505 90.5778 67.9578 83.7941 65.0951 78.6414C62.2471 73.5152 58.1634 70.0366 53.8738 69.612L53.8704 69.6156C53.8309 69.6587 53.7727 69.7223 53.6979 69.8046C53.5482 69.9692 53.3319 70.2085 53.0661 70.5069C52.5345 71.1038 51.8047 71.937 51.0122 72.8821C49.4245 74.7756 47.5946 77.1074 46.5967 78.8883C45.602 80.6635 44.9042 82.9191 44.3605 85.281C43.9181 87.2033 43.5798 89.1863 43.2655 91.0286C43.1938 91.4493 43.1232 91.8627 43.053 92.2663C42.8678 93.3308 42.8532 94.7642 42.9295 96.3987C43.0058 98.0308 43.172 99.8516 43.3443 101.687C43.3563 101.816 43.3684 101.944 43.3805 102.073C43.7129 105.608 44.0474 109.167 43.7668 111.444L41.9412 126.186L41.9338 126.204L41.9337 126.205L41.9335 126.205L41.9334 126.205ZM53.8059 69.4352L53.6814 69.32L53.738 69.2588M53.8059 69.4352C53.6814 69.32 53.6815 69.32 53.6814 69.32L53.6811 69.3203L53.6804 69.3211L53.6658 69.3369L53.6204 69.3863C53.5807 69.4296 53.5221 69.4936 53.4469 69.5763C53.2965 69.7417 53.0795 69.9819 52.8128 70.2813C52.2795 70.88 51.5474 71.7158 50.7522 72.6641C49.1645 74.5576 47.3158 76.9109 46.3007 78.7225C45.2824 80.5399 44.5759 82.8327 44.0299 85.2049C43.5851 87.1376 43.2448 89.1326 42.9304 90.9753C42.8589 91.395 42.7886 91.8068 42.7188 92.2082C42.5269 93.3111 42.5141 94.7755 42.5906 96.4145C42.6673 98.0559 42.8343 99.8844 43.0065 101.719C43.0176 101.837 43.0287 101.956 43.0398 102.074C43.3745 105.635 43.7061 109.163 43.4301 111.402C43.4301 111.402 43.4301 111.402 43.4301 111.402L41.6094 126.105" fill="#514C4E"/>
<path d="M53.805 69.4355C53.805 69.4355 48.4608 75.2133 46.4478 78.8058C45.8509 79.8976 45.3674 81.0476 45.0049 82.2379L55.7527 69.8215C55.1178 69.6292 54.4654 69.4999 53.805 69.4355Z" fill="#514C4E"/>
<path d="M9.25394 85.1129L20.7354 94.3442L21.2302 93.7287L9.74881 84.4975L9.25394 85.1129Z" fill="#514C4E"/>
<path d="M59.3331 75.8428C59.3331 75.8428 63.5432 78.7108 63.6382 85.4861C63.6797 88.4552 63.371 91.2282 62.6881 96.0915C62.0052 100.955 57.7655 116.791 54.4639 118.715C51.1624 120.639 46.0378 117.005 46.0378 117.005L21.2525 100.551L15.261 95.7114L12.292 90.1059L13.2243 88.3245L20.534 93.93L16.5971 90.29L17.369 89.3102L18.7941 90.3019L22.9508 91.8577L23.8593 97.7957L25.1419 98.6745L48.8525 107.338C48.8525 107.338 48.5556 94.5773 48.7753 92.1367C48.995 89.6962 49.2978 83.5622 51.9106 79.1146" fill="white"/>
<path fill-rule="evenodd" clip-rule="evenodd" d="M59.2378 75.9828C59.2378 75.9828 59.2379 75.9829 59.3334 75.8427C59.4289 75.7025 59.429 75.7026 59.4291 75.7026L59.4294 75.7028L59.4303 75.7034L59.4331 75.7054L59.4434 75.7126C59.4522 75.7188 59.4648 75.7279 59.4811 75.7398C59.5136 75.7637 59.5606 75.7992 59.62 75.8464C59.7388 75.9408 59.9074 76.0825 60.1093 76.2735C60.513 76.6553 61.0505 77.2348 61.5905 78.0282C62.6714 79.6163 63.7601 82.059 63.8081 85.4837C63.8498 88.467 63.5393 91.2515 62.8564 96.115C62.5131 98.5597 61.2794 103.745 59.7197 108.558C58.9396 110.965 58.0761 113.285 57.1992 115.126C56.7608 116.046 56.3173 116.85 55.877 117.487C55.439 118.12 54.9945 118.603 54.5496 118.862C52.8265 119.866 50.6526 119.411 48.9509 118.74C48.0937 118.401 47.342 118.003 46.8049 117.689C46.5362 117.533 46.3207 117.397 46.1721 117.3C46.0978 117.251 46.0402 117.212 46.0009 117.186C45.9813 117.172 45.9663 117.162 45.956 117.155L45.9443 117.147L45.9412 117.144L21.1524 100.688L15.1277 95.8215L12.1006 90.1063L13.1678 88.0671L17.7144 91.5537L16.3671 90.3081L17.335 89.0796L18.8738 90.1504L23.1037 91.7336L24.0161 97.6973L25.2205 98.5224L48.6776 107.093C48.6757 107.011 48.6735 106.909 48.6708 106.789C48.6632 106.435 48.6524 105.927 48.6402 105.309C48.6158 104.075 48.5855 102.403 48.5622 100.655C48.5155 97.1648 48.4958 93.3528 48.6066 92.1215C48.6248 91.9198 48.6435 91.6921 48.6642 91.4416C48.8916 88.6798 49.3474 83.1433 51.7646 79.0286L52.0571 79.2005C49.6823 83.2431 49.2313 88.7003 49.0023 91.4706C48.9817 91.7206 48.9628 91.9487 48.9445 92.1519C48.8357 93.361 48.8546 97.1498 48.9014 100.65C48.9248 102.397 48.955 104.068 48.9794 105.303C48.9916 105.92 49.0023 106.428 49.01 106.781C49.0139 106.958 49.0169 107.096 49.0191 107.19L49.0223 107.334C49.0223 107.334 49.0223 107.334 48.8528 107.338L49.0223 107.334L49.0281 107.583L25.0639 98.8264L23.703 97.894L22.7984 91.9816L18.715 90.4532L17.4036 89.5407L16.8276 90.2718L20.6494 93.8054L20.4311 94.0646L13.2813 88.5818L12.484 90.1054L15.3949 95.6012L21.3532 100.414L46.1341 116.865L46.1362 116.867L46.1394 116.869L46.1498 116.876C46.1592 116.883 46.1733 116.893 46.1921 116.905C46.2295 116.931 46.2852 116.968 46.3575 117.015C46.502 117.11 46.7127 117.243 46.976 117.396C47.5029 117.704 48.2387 118.094 49.0753 118.424C50.7612 119.089 52.8004 119.489 54.3788 118.569C54.7593 118.347 55.1695 117.914 55.598 117.294C56.0242 116.677 56.4589 115.891 56.8929 114.98C57.7608 113.158 58.619 110.854 59.3969 108.453C60.9532 103.651 62.1808 98.4863 62.5204 96.0678C63.2033 91.2048 63.5102 88.4432 63.4689 85.4884C63.4219 82.1378 62.358 79.7589 61.3101 78.2191C60.7857 77.4486 60.2648 76.8875 59.8761 76.5199C59.6818 76.3361 59.5207 76.2008 59.4089 76.1119C59.353 76.0675 59.3095 76.0347 59.2803 76.0133C59.2657 76.0026 59.2547 75.9947 59.2476 75.9896L59.2397 75.9842L59.2378 75.9828Z" fill="#514C4E"/>
<path d="M48.0684 104.886L48.8344 107.338L57.8839 113.87L60.2295 109.713C60.2295 109.713 61.8505 108.437 62.0881 107.475C62.1304 107.307 62.1563 107.136 62.1652 106.964C57.3964 106.882 52.6581 106.183 48.0684 104.886Z" fill="#514C4E"/>
<path fill-rule="evenodd" clip-rule="evenodd" d="M50.7597 134.791C50.7063 135.381 50.7516 136.353 51.1662 137.85C51.5754 139.327 52.4811 140.641 53.2924 141.591C53.697 142.064 54.0758 142.445 54.3532 142.706C54.4918 142.837 54.605 142.938 54.6831 143.006C54.7222 143.04 54.7526 143.066 54.773 143.083C54.7832 143.091 54.7909 143.098 54.796 143.102L54.8016 143.107L54.8029 143.108L54.8031 143.108L54.8699 143.162L54.8656 143.248L54.6962 143.24C54.8656 143.248 54.8656 143.248 54.8656 143.248L54.8549 143.454C54.8479 143.589 54.8375 143.788 54.8238 144.043C54.7964 144.554 54.756 145.291 54.704 146.197C54.5999 148.009 54.4494 150.496 54.2634 153.199C53.8917 158.601 53.3776 164.872 52.809 168.32C51.7432 174.781 53.3943 180.4 53.9143 182.17C53.9443 182.272 53.9705 182.361 53.9923 182.437C54.0986 182.809 54.1354 183.337 54.1413 183.931C54.1472 184.52 54.1227 185.192 54.098 185.871L54.0967 185.906C54.0458 187.301 53.9977 188.709 54.1907 189.573C54.39 190.465 55.083 193.585 55.6028 197.424C56.1222 201.259 56.4706 205.826 55.9748 209.607C55.4823 213.363 55.1857 216.525 55.0122 218.747C54.9255 219.859 54.8695 220.735 54.8353 221.334C54.8181 221.633 54.8064 221.863 54.799 222.018C54.7953 222.095 54.7926 222.154 54.7909 222.193L54.7891 222.237L54.7885 222.252C54.7885 222.252 54.7885 222.252 54.619 222.245C54.4495 222.238 54.4495 222.238 54.4495 222.238L54.4501 222.223L54.452 222.178C54.4537 222.138 54.4564 222.079 54.4601 222.001C54.4676 221.846 54.4794 221.615 54.4966 221.314C54.531 220.714 54.5871 219.835 54.674 218.721C54.8479 216.493 55.1451 213.325 55.6384 209.563C56.1283 205.827 55.7849 201.296 55.2666 197.469C54.7487 193.645 54.0582 190.536 53.8596 189.647C53.6547 188.729 53.7076 187.268 53.7577 185.894L53.7588 185.864C53.7837 185.18 53.8079 184.515 53.8021 183.935C53.7962 183.342 53.7587 182.854 53.6661 182.531C53.6444 182.455 53.6181 182.365 53.588 182.263C53.0664 180.489 51.3955 174.805 52.4742 168.264C53.0398 164.836 53.553 158.581 53.925 153.176C54.1108 150.475 54.2613 147.988 54.3653 146.177C54.4173 145.272 54.4576 144.535 54.485 144.025C54.4987 143.77 54.5091 143.571 54.5161 143.437L54.5224 143.315C54.5049 143.3 54.4842 143.282 54.4604 143.262C54.3792 143.191 54.2626 143.087 54.1204 142.953C53.8361 142.685 53.4485 142.296 53.0344 141.811C52.2083 140.844 51.2673 139.486 50.8392 137.941C50.4165 136.415 50.3639 135.401 50.4218 134.76C50.4508 134.44 50.5075 134.213 50.5593 134.063C50.5852 133.988 50.6098 133.932 50.629 133.894C50.6386 133.874 50.6469 133.86 50.6532 133.849C50.6564 133.843 50.6591 133.839 50.6613 133.835L50.6642 133.831L50.6653 133.829L50.6657 133.828L50.6659 133.828C50.666 133.828 50.6661 133.828 50.8067 133.923C50.9473 134.018 50.9474 134.018 50.9475 134.017L50.948 134.017L50.9484 134.016C50.9485 134.016 50.9486 134.016 50.9484 134.016L50.9462 134.02C50.9436 134.024 50.9389 134.033 50.9326 134.045C50.92 134.07 50.9011 134.112 50.88 134.174C50.8377 134.296 50.7864 134.496 50.7597 134.791Z" fill="#514C4E"/>
<path fill-rule="evenodd" clip-rule="evenodd" d="M54.6777 140.252L55.7763 134.171L56.1101 134.232L55.0116 140.312L54.6777 140.252Z" fill="#514C4E"/>
<path d="M164.021 110.49C168.879 89.9051 156.131 69.2793 135.546 64.4208C114.961 59.5623 94.3352 72.311 89.4767 92.8958C84.6183 113.481 97.367 134.107 117.952 138.965C138.537 143.823 159.162 131.075 164.021 110.49Z" fill="#514C4E"/>
<path opacity="0.4" d="M159.605 104.637C162.482 86.8356 150.384 70.0723 132.582 67.1952C114.78 64.3182 98.017 76.417 95.14 94.2186C92.263 112.02 104.362 128.783 122.163 131.66C139.965 134.538 156.728 122.439 159.605 104.637Z" fill="white"/>
<path d="M125.237 104.258C124.868 104.257 124.505 104.16 124.184 103.978L109.141 95.3822C108.895 95.2411 108.68 95.053 108.507 94.8287C108.334 94.6044 108.207 94.3482 108.133 94.0748C108.059 93.8014 108.04 93.5161 108.076 93.2353C108.113 92.9545 108.204 92.6835 108.345 92.438C108.486 92.1925 108.675 91.9771 108.899 91.8043C109.123 91.6315 109.379 91.5045 109.653 91.4307C109.926 91.3568 110.211 91.3376 110.492 91.374C110.773 91.4104 111.044 91.5017 111.29 91.6429L123.174 98.3694V79.2858C123.174 78.7158 123.4 78.1692 123.803 77.7662C124.206 77.3631 124.753 77.1367 125.323 77.1367C125.893 77.1367 126.44 77.3631 126.843 77.7662C127.246 78.1692 127.472 78.7158 127.472 79.2858V102.044C127.473 102.423 127.375 102.795 127.186 103.124C126.998 103.452 126.725 103.725 126.397 103.914C126.052 104.137 125.649 104.257 125.237 104.258Z" fill="#514C4E"/>
<path opacity="0.4" d="M164.021 110.49C168.879 89.9051 156.131 69.2793 135.546 64.4208C114.961 59.5623 94.3352 72.311 89.4767 92.8958C84.6183 113.481 97.367 134.107 117.952 138.965C138.537 143.823 159.162 131.075 164.021 110.49Z" fill="white"/>
</svg>
